<svg xmlns="http://www.w3.org/2000/svg" viewBox="0 0 174 116.2" enable-background="new 0 0 174 116.2"><path d="M130 29.5c0-4-.7-7.5-2.1-10.4-1.4-2.9-3.3-5.2-5.7-7-2.4-1.8-5.2-3.1-8.4-3.9-3.1-.8-6.5-1.2-9.9-1.2h-15.1v44.5h9.7l7.2-10.9 2.3 3.4-1.5-2.3c1.3-.1 2.5-.3 3.7-.5 1.9-.4 3.5-1.2 4.8-2.2 1.4-1 2.4-2.3 3.2-4 .8-1.7 1.2-3.7 1.2-6.1 0-2.1-.4-3.9-1.2-5.4-.8-1.5-1.8-2.8-3.1-3.8s-2.9-1.7-4.6-2.2c-1.8-.5-3.6-.7-5.6-.7h-5.5v25.1h5.5l-5.6 8.6h-9.3v-42.3h14c3.4 0 6.6.4 9.6 1.1 3 .8 5.7 2 8 3.7 2.3 1.7 4.1 3.9 5.4 6.6 1.3 2.7 2 6 2 9.9 0 3.4-.6 6.4-1.9 9-1.3 2.6-3 4.8-5.2 6.6-2.2 1.8-4.7 3.1-7.6 4-.8.3-1.6.5-2.5.7l.7 1 2.2-.6c3-1 5.7-2.4 7.9-4.2 2.3-1.9 4.2-4.2 5.5-6.9 1.3-2.8 1.9-6 1.9-9.6zm-25.6 11.3h-4v-22.9h4.4c1.8 0 3.6.2 5.3.7 1.6.5 3.1 1.1 4.3 2.1 1.2.9 2.1 2 2.8 3.4.7 1.4 1 3 1 4.9 0 2.2-.4 4.1-1.1 5.6-.7 1.5-1.7 2.7-2.9 3.6-1.2.9-2.7 1.6-4.4 2-1 .2-2.1.4-3.5.5l-1.9.1z" fill="none"/><path d="M81.3 12.5c-2.1-2-4.7-3.6-7.6-4.7-5.8-2.2-13.3-2.2-19.1 0-2.9 1.1-5.5 2.7-7.6 4.7-2.1 2-3.8 4.5-5 7.4-1.2 2.9-1.8 6.1-1.8 9.6s.6 6.8 1.8 9.6c1.2 2.9 2.9 5.4 5 7.4s4.7 3.6 7.6 4.7c2.9 1.1 6.1 1.6 9.5 1.6 3.4 0 6.6-.5 9.5-1.6 2.9-1.1 5.5-2.7 7.6-4.7 2.1-2 3.8-4.5 5-7.4 1.2-2.9 1.8-6.1 1.8-9.6s-.6-6.8-1.8-9.6c-1.1-2.9-2.8-5.4-4.9-7.4zm4 26.2c-1.1 2.7-2.7 5.1-4.7 7-2 1.9-4.4 3.4-7.2 4.5-2.8 1-5.8 1.6-9.1 1.6s-6.4-.5-9.1-1.6c-2.8-1-5.2-2.5-7.2-4.5-2-1.9-3.6-4.3-4.7-7s-1.7-5.8-1.7-9.2c0-3.4.6-6.5 1.7-9.2 1.1-2.7 2.7-5.1 4.7-7 2-1.9 4.4-3.4 7.2-4.5 2.8-1 5.8-1.6 9.1-1.6s6.4.5 9.1 1.6c2.8 1 5.2 2.5 7.2 4.5 2 1.9 3.6 4.3 4.7 7s1.7 5.8 1.7 9.2c0 3.4-.6 6.5-1.7 9.2z" fill="none"/><path d="M73.7 19.7c-1.2-1.2-2.5-2.2-4.2-2.8-1.6-.7-3.4-1-5.4-1-2 0-3.8.3-5.4 1-1.6.7-3 1.6-4.2 2.8-1.2 1.2-2 2.7-2.7 4.3-.6 1.7-.9 3.5-.9 5.4 0 2 .3 3.8.9 5.5.6 1.7 1.5 3.1 2.7 4.3 1.2 1.2 2.5 2.2 4.2 2.8 1.6.7 3.4 1 5.4 1 2 0 3.8-.3 5.4-1 1.6-.7 3-1.6 4.2-2.8 1.2-1.2 2-2.6 2.7-4.3.6-1.7.9-3.5.9-5.5s-.3-3.8-.9-5.4c-.6-1.6-1.5-3-2.7-4.3zm1.6 14.9c-.6 1.5-1.4 2.8-2.4 3.9s-2.3 2-3.8 2.6c-2.9 1.2-7 1.2-9.9 0-1.5-.6-2.7-1.5-3.8-2.6-1-1.1-1.9-2.4-2.4-3.9-.6-1.5-.9-3.2-.9-5.1 0-1.8.3-3.5.9-5 .6-1.5 1.4-2.8 2.4-3.9s2.3-2 3.8-2.6c1.5-.6 3.1-.9 5-.9 1.8 0 3.5.3 5 .9 1.5.6 2.7 1.5 3.8 2.6 1 1.1 1.9 2.4 2.4 3.9.6 1.5.9 3.2.9 5-.1 1.9-.4 3.6-1 5.1z" fill="none"/><path d="M29.2 51c2-.4 3.8-1.1 5.5-2.1 1.7-1 3-2.3 4.1-4 1.1-1.7 1.6-3.8 1.6-6.2 0-1.5-.2-2.9-.7-4.2-.5-1.3-1.2-2.5-2.1-3.5-.9-1-2-1.8-3.2-2.5-.3-.2-.7-.3-1.1-.5 1.1-.7 2.1-1.5 2.9-2.5 1.5-1.8 2.3-4 2.3-6.7 0-2.5-.5-4.6-1.6-6.2-1-1.5-2.4-2.8-4-3.6-1.6-.8-3.4-1.4-5.4-1.7-1.9-.3-3.8-.4-5.7-.4h-16.9v44.5h18.4c2 .2 3.9 0 5.9-.4zm-23.2-.5v-42.3h15.8c1.8 0 3.7.1 5.5.4 1.9.3 3.5.8 5 1.6s2.7 1.9 3.6 3.3c.9 1.4 1.4 3.2 1.4 5.6 0 2.4-.7 4.4-2 5.9-1.3 1.6-3.1 2.7-5.3 3.4v.1c1.4.2 2.7.6 3.8 1.2 1.1.6 2.1 1.3 2.9 2.2.8.9 1.4 1.9 1.9 3.1.4 1.2.7 2.5.7 3.8 0 2.2-.5 4.1-1.4 5.6-1 1.5-2.2 2.7-3.7 3.6-1.5.9-3.2 1.6-5.1 2-1.9.4-3.8.6-5.6.6h-17.5z" fill="none"/><path d="M24.2 24.9c.7-.2 1.3-.4 1.9-.8.6-.4 1-.8 1.3-1.4.3-.6.5-1.3.5-2.2 0-.9-.2-1.6-.6-2.2-.4-.6-.9-1-1.5-1.3-.6-.3-1.3-.5-2-.7-.8-.1-1.5-.2-2.2-.2h-6.3v9h6.7c.8 0 1.5-.1 2.2-.2zm-7.8-7.7h5.2c.6 0 1.3.1 2 .2.6.1 1.2.3 1.7.6.4.2.8.5 1.1 1 .3.4.4.9.4 1.6 0 .6-.1 1.2-.4 1.6-.3.4-.6.8-1 1-.4.3-1 .5-1.5.6-.6.1-1.2.2-1.9.2h-5.6v-6.8z" fill="none"/><path d="M29.9 37.7c0-1-.2-1.8-.7-2.4-.5-.6-1.1-1.1-1.9-1.4-.8-.3-1.6-.5-2.4-.7-.9-.1-1.7-.2-2.4-.2h-7v9.6h8.4c.7 0 1.4-.1 2.2-.2.7-.2 1.4-.4 2-.8.6-.4 1.1-.9 1.5-1.6.1-.7.3-1.4.3-2.3zm-1.5 1.7c-.3.5-.7.9-1.1 1.2-.5.3-1 .5-1.6.7-.7.1-1.3.2-1.9.2h-7.2v-7.4h5.9c.7 0 1.5.1 2.3.2.8.1 1.5.3 2.2.6.6.2 1.1.6 1.4 1.1.3.4.5 1 .5 1.7-.1.7-.3 1.2-.5 1.7z" fill="none"/><path d="M139.9 51.6h11.6v-18.8l16.8-25.7h-13.8l-8.8 14.7-8.3-14.7h-14.3l16.8 25.7v18.8zm-14.8-43.4h11.6l9 15.8 9.5-15.8h11.1l-15.9 24.3v18h-9.4v-18l-15.9-24.3z" fill="none"/><path d="M28.6 77.5c-.4-.5-1-.9-1.8-1.2-1.6-.5-2.8-.7-4.2-.4-.5.1-.9.3-1.3.5-.3.1-.4.3-.6.5-.1.1-.1.3-.1.4 0 .5.1.5.3.6.7.5 1.7 1 2.9 1.4 1.4.5 2.9.9 4.6 1.4 1.9.5 3.7 1.3 5.4 2.3 1.5.9 2.9 2.2 3.9 3.6v-14.2l-7.1 7.6-2-2.5z" fill="none"/><g fill="none"><path d="M125.8 64.3v10.5h12.1v34h11.6v-34h12.1v-10.5h-35.8zm34.6 9.3h-12.1v34h-9.3v-34h-12.1v-8.2h33.5v8.2zM20.4 74.9c.5-.3 1.1-.5 1.7-.6 1.7-.4 3.3-.2 5.2.4 1.1.4 1.9 1 2.6 1.8l.8 1 8-8.8-.8-.8c-1.9-1.7-4.1-2.9-6.4-3.6-4.4-1.3-9.2-1.4-13.6-.2-2.1.6-3.9 1.6-5.5 2.8-1.6 1.3-2.9 2.8-3.9 4.7-1 1.9-1.5 4.1-1.5 6.5 0 2.6.6 4.7 1.7 6.3 1.1 1.6 2.4 2.8 4 3.8 1.5.9 3.2 1.7 5 2.2 1.7.5 3.3 1 4.7 1.5 1.4.5 2.5 1.1 3.4 1.7.7.5 1 1.2 1 2.1 0 .5-.1 1-.4 1.3-.3.4-.7.8-1.1 1-.5.3-1.1.5-1.8.7-2.1.5-4.2.2-6.1-.7-1.3-.6-2.4-1.5-3.2-2.6l-.8-1.1-8.3 9.1.8.8c2.1 2 4.5 3.4 7 4.3 2.5.9 5.2 1.3 8 1.3 2.3 0 4.5-.3 6.5-.9 2.1-.6 4-1.5 5.6-2.8 1.6-1.3 2.9-2.8 3.9-4.7 1-1.9 1.4-4.1 1.4-6.7 0-2.7-.5-4.9-1.6-6.5-1-1.6-2.4-2.9-4-3.9-1.5-.9-3.2-1.6-5-2.1-1.7-.5-3.2-.9-4.6-1.4-1.3-.4-2.5-1-3.3-1.6-.7-.5-1-1.1-1-2 0-.6.1-1 .4-1.4.4-.3.7-.6 1.2-.9zm-2 .4c-.4.6-.6 1.2-.6 2 0 1.3.5 2.3 1.4 2.9 1 .7 2.2 1.3 3.6 1.7 1.5.5 3 1 4.7 1.4 1.7.5 3.2 1.2 4.7 2 1.5.9 2.7 2.1 3.6 3.5 1 1.5 1.4 3.4 1.4 5.9 0 2.4-.4 4.4-1.3 6.2-.9 1.8-2.1 3.2-3.6 4.4-1.5 1.2-3.2 2-5.2 2.6-2 .6-4.1.8-6.2.8-2.7 0-5.3-.4-7.6-1.3-2.3-.8-4.5-2.2-6.6-4.1l6.6-7.3c1 1.3 2.2 2.3 3.6 3 1.5.7 3 1 4.5 1 .8 0 1.5-.1 2.3-.3.8-.2 1.5-.4 2.1-.8.6-.4 1.1-.8 1.5-1.4.4-.6.6-1.2.6-2 0-1.3-.5-2.3-1.5-3-1-.7-2.2-1.4-3.7-1.9s-3.1-1-4.8-1.6c-1.7-.5-3.3-1.2-4.8-2.1-1.5-.9-2.7-2-3.7-3.5-1-1.4-1.5-3.3-1.5-5.7 0-2.3.4-4.3 1.3-6 .9-1.7 2.1-3.1 3.6-4.3 1.5-1.2 3.2-2 5.2-2.6 2-.6 4-.9 6-.9 2.4 0 4.7.3 6.9 1s4.2 1.8 6 3.4l-6.4 7c-.8-1-1.8-1.7-3.1-2.1-1.3-.5-2.5-.7-3.7-.7-.7 0-1.4.1-2.1.2-.7.2-1.4.4-2 .7-.3.9-.9 1.3-1.2 1.9zM67.9 80.1h-17.1v-15.8h-11.5v44.5h11.6v-18.3h17.1v18.3h11.6v-44.5h-11.7v15.8zm1.1-14.7h9.3v42.3h-9.3v-18.3h-19.3v18.3h-9.3v-42.3h9.3v15.8h19.3v-15.8z"/></g><path d="M125.1 78.5c-3.6-5.8-7.4-11.6-11.1-17.2l-8.4-12.8-8.1 12.5c-3.7 5.7-7.6 11.6-11.3 17.5-4.1 6.7-4.5 15.2-1 22.2 3.8 7.7 11.9 12.6 20.6 12.6 3.5 0 6.9-.8 10-2.3 5.7-2.8 9.9-8 11.7-14.2 1.8-6.2.9-12.9-2.4-18.3z"/><g fill="#fff"><path d="M32.2 85.4c-1.5-.9-3-1.6-4.7-2-1.7-.5-3.2-1-4.7-1.4-1.5-.5-2.7-1.1-3.6-1.7-1-.7-1.4-1.7-1.4-2.9 0-.8.2-1.5.6-2 .4-.6.9-1 1.6-1.3.6-.3 1.3-.6 2-.7.7-.2 1.4-.2 2.1-.2 1.2 0 2.4.2 3.7.7 1.3.5 2.3 1.2 3.1 2.1l6.4-7c-1.8-1.6-3.8-2.7-6-3.4-2.2-.7-4.5-1-6.9-1-2.1 0-4.1.3-6 .9-2 .6-3.7 1.4-5.2 2.6-1.5 1.2-2.7 2.6-3.6 4.3-.9 1.7-1.3 3.7-1.3 6 0 2.4.5 4.2 1.5 5.7 1 1.4 2.2 2.6 3.7 3.5 1.5.9 3.1 1.6 4.8 2.1 1.7.5 3.3 1 4.8 1.6 1.5.5 2.7 1.1 3.7 1.9 1 .7 1.5 1.7 1.5 3 0 .8-.2 1.4-.6 2-.4.6-.9 1-1.5 1.4-.6.4-1.3.6-2.1.8-.8.2-1.5.3-2.3.3-1.6 0-3.1-.3-4.5-1-1.5-.7-2.7-1.7-3.6-3l-6.6 7.3c2 1.9 4.2 3.2 6.6 4.1 2.3.8 4.9 1.3 7.6 1.3 2.2 0 4.3-.3 6.2-.8 2-.6 3.7-1.4 5.2-2.6 1.5-1.2 2.7-2.6 3.6-4.4.9-1.8 1.3-3.8 1.3-6.2 0-2.5-.5-4.4-1.4-5.9-1.4-2-2.6-3.2-4-4.1z"/><polygon points="69,81.2 49.7,81.2 49.7,65.4 40.4,65.4 40.4,107.7 49.7,107.7 49.7,89.4 69,89.4 69,107.7 78.3,107.7 78.3,65.4 69,65.4"/><polygon points="126.9,65.4 126.9,73.6 139,73.6 139,107.7 148.3,107.7 148.3,73.6 160.4,73.6 160.4,65.4"/></g><path fill="#fff" d="M128.9 29.5c0-3.9-.7-7.1-2-9.9-1.3-2.7-3.1-4.9-5.4-6.6-2.3-1.7-4.9-2.9-8-3.7-3-.8-6.3-1.1-9.6-1.1h-14v42.3h9.3l5.7-8.6h-5.6v-25.1h5.5c1.9 0 3.8.2 5.6.7 1.8.5 3.3 1.2 4.6 2.2 1.3 1 2.4 2.3 3.1 3.8.8 1.5 1.2 3.3 1.2 5.4 0 2.4-.4 4.4-1.2 6.1-.8 1.7-1.8 3-3.2 4-1.4 1-3 1.7-4.8 2.2-1.2.3-2.5.4-3.8.5l5.3 8c.8-.2 1.7-.4 2.5-.7 2.9-.9 5.4-2.3 7.6-4 2.2-1.8 3.9-4 5.2-6.6 1.4-2.5 2-5.5 2-8.9z"/><path fill="#fff" d="M80.5 13.3c-2-1.9-4.4-3.4-7.2-4.5-2.8-1-5.8-1.6-9.1-1.6s-6.4.5-9.1 1.6c-2.8 1-5.2 2.5-7.2 4.5-2 1.9-3.6 4.3-4.7 7s-1.7 5.8-1.7 9.2c0 3.4.6 6.5 1.7 9.2 1.1 2.7 2.7 5.1 4.7 7 2 1.9 4.4 3.4 7.2 4.5 2.8 1 5.8 1.6 9.1 1.6s6.4-.5 9.1-1.6c2.8-1 5.2-2.5 7.2-4.5 2-1.9 3.6-4.3 4.7-7s1.7-5.8 1.7-9.2c0-3.4-.6-6.5-1.7-9.2-1.1-2.7-2.6-5.1-4.7-7zm-3.2 16.2c0 2-.3 3.8-.9 5.5-.6 1.7-1.5 3.1-2.7 4.3-1.2 1.2-2.5 2.2-4.2 2.8-1.6.7-3.4 1-5.4 1-2 0-3.8-.3-5.4-1-1.6-.7-3-1.6-4.2-2.8-1.2-1.2-2-2.6-2.7-4.3-.6-1.7-.9-3.5-.9-5.5s.3-3.8.9-5.4c.6-1.7 1.5-3.1 2.7-4.3 1.2-1.2 2.5-2.2 4.2-2.8 1.6-.7 3.4-1 5.4-1 2 0 3.8.3 5.4 1 1.6.7 3 1.6 4.2 2.8 1.2 1.2 2 2.7 2.7 4.3.6 1.6.9 3.5.9 5.4z"/><path fill="#fff" d="M36.7 31.8c-.8-.9-1.8-1.6-2.9-2.2-1.1-.6-2.4-1-3.8-1.2v-.1c2.2-.7 4-1.8 5.3-3.4 1.3-1.6 2-3.6 2-5.9 0-2.3-.5-4.2-1.4-5.6-.9-1.4-2.1-2.5-3.6-3.3-1.5-.8-3.1-1.3-5-1.6-1.9-.3-3.7-.4-5.5-.4h-15.8v42.3h17.3c1.9 0 3.8-.2 5.6-.6 1.9-.4 3.6-1.1 5.1-2 1.5-.9 2.7-2.1 3.7-3.6s1.4-3.4 1.4-5.6c0-1.4-.2-2.6-.7-3.8-.3-1.1-.9-2.1-1.7-3zm-13 10.8h-8.4v-9.6h7c.8 0 1.6.1 2.4.2.9.1 1.7.3 2.4.7.8.3 1.4.8 1.9 1.4.5.6.7 1.4.7 2.4 0 .9-.2 1.7-.6 2.3-.4.6-.9 1.2-1.5 1.6-.6.4-1.3.7-2 .8-.5.1-1.2.2-1.9.2zm3.7-19.9c-.3.6-.8 1.1-1.3 1.4-.6.4-1.2.6-1.9.8-.7.2-1.4.2-2.1.2h-6.7v-9h6.3c.7 0 1.5.1 2.2.2.8.1 1.4.4 2 .7.6.3 1.1.8 1.5 1.3.4.6.6 1.3.6 2.2-.1.8-.3 1.6-.6 2.2z"/><polygon fill="#fff" points="141,50.5 150.4,50.5 150.4,32.5 166.2,8.2 155.2,8.2 145.7,24 136.7,8.2 125.1,8.2 141,32.5"/><path fill="#7AC943" d="M106 59.2c.6.9 1.1 1.7 1.7 2.5 4 6.1 8.2 12.5 12.1 18.8.9 1.4 1.5 3 1.9 4.7.1.4.2.9.3 1.4v.4c0 3.3-2.7 6.1-6.1 6.1-3.3 0-6.1-2.7-6.1-6 .1-.8-2-17.1-3.8-27.9z"/></svg>