<svg xmlns="http://www.w3.org/2000/svg" viewBox="0 0 792 612" enable-background="new 0 0 792 612"><path d="M591.7 175.8c0-18.2-3.2-34.1-9.6-47.3s-15-23.7-25.9-31.9-23.6-14.1-38.2-17.7c-14.1-3.6-29.6-5.5-45.1-5.5h-68.7v202.6h44.2l32.8-49.6 10.5 15.5-6.8-10.5c5.9-.5 11.4-1.4 16.8-2.3 8.6-1.8 15.9-5.5 21.8-10 6.4-4.6 10.9-10.5 14.6-18.2 3.6-7.7 5.5-16.8 5.5-27.8 0-9.6-1.8-17.8-5.5-24.6-3.6-6.8-8.2-12.7-14.1-17.3-5.9-4.6-13.2-7.7-20.9-10-8.2-2.3-16.4-3.2-25.5-3.2h-25v114.2h25l-25.6 39.2h-42.3v-192.5h63.7c15.5 0 30 1.8 43.7 5 13.7 3.6 25.9 9.1 36.4 16.8 10.5 7.7 18.7 17.8 24.6 30s9.1 27.3 9.1 45.1c0 15.5-2.7 29.1-8.6 41-5.9 11.8-13.7 21.8-23.7 30s-21.4 14.1-34.6 18.2c-3.6 1.4-7.3 2.3-11.4 3.2l3.2 4.6 10-2.7c13.7-4.6 25.9-10.9 36-19.1 10.5-8.6 19.1-19.1 25-31.4 5.9-12.8 8.6-27.4 8.6-43.8zm-116.5 51.5h-18.2v-104.3h20c8.2 0 16.4.9 24.1 3.2 7.3 2.3 14.1 5 19.6 9.6 5.5 4.1 9.6 9.1 12.7 15.5 3.2 6.4 4.6 13.7 4.6 22.3 0 10-1.8 18.7-5 25.5-3.2 6.8-7.7 12.3-13.2 16.4-5.5 4.1-12.3 7.3-20 9.1-4.6.9-9.6 1.8-15.9 2.3l-8.7.4z" fill="none"/><path d="M370.1 98.4c-9.6-9.1-21.4-16.4-34.6-21.4-26.4-10-60.5-10-86.9 0-13.2 5-25 12.3-34.6 21.4s-17.3 20.5-22.8 33.7-8.2 27.8-8.2 43.7 2.7 31 8.2 43.7c5.5 13.2 13.2 24.6 22.8 33.7 9.6 9.1 21.4 16.4 34.6 21.4 13.2 5 27.8 7.3 43.2 7.3s30-2.3 43.2-7.3c13.2-5 25-12.3 34.6-21.4 9.6-9.1 17.3-20.5 22.8-33.7 5.5-13.2 8.2-27.8 8.2-43.7s-2.7-31-8.2-43.7c-5-13.2-12.8-24.6-22.3-33.7zm18.2 119.3c-5 12.3-12.3 23.2-21.4 31.9-9.1 8.6-20 15.5-32.8 20.5-12.7 4.6-26.4 7.3-41.4 7.3s-29.1-2.3-41.4-7.3c-12.7-4.6-23.7-11.4-32.8-20.5-9.1-8.6-16.4-19.6-21.4-31.9-5-12.3-7.7-26.4-7.7-41.9s2.7-29.6 7.7-41.9 12.3-23.2 21.4-31.9c9.1-8.6 20-15.5 32.8-20.5 12.7-4.6 26.4-7.3 41.4-7.3s29.1 2.3 41.4 7.3c12.7 4.6 23.7 11.4 32.8 20.5 9.1 8.6 16.4 19.6 21.4 31.9 5 12.3 7.7 26.4 7.7 41.9s-2.7 29.6-7.7 41.9z" fill="none"/><path d="M335.5 131.2c-5.5-5.5-11.4-10-19.1-12.7-7.3-3.2-15.5-4.6-24.6-4.6s-17.3 1.4-24.6 4.6c-7.3 3.2-13.7 7.3-19.1 12.7-5.5 5.5-9.1 12.3-12.3 19.6-2.7 7.7-4.1 15.9-4.1 24.6 0 9.1 1.4 17.3 4.1 25 2.7 7.7 6.8 14.1 12.3 19.6s11.4 10 19.1 12.7c7.3 3.2 15.5 4.6 24.6 4.6s17.3-1.4 24.6-4.6c7.3-3.2 13.7-7.3 19.1-12.7 5.5-5.5 9.1-11.8 12.3-19.6 2.7-7.7 4.1-15.9 4.1-25s-1.4-17.3-4.1-24.6c-2.8-7.3-6.9-13.7-12.3-19.6zm7.2 67.8c-2.7 6.8-6.4 12.7-10.9 17.8-4.6 5-10.5 9.1-17.3 11.8-13.2 5.5-31.9 5.5-45.1 0-6.8-2.7-12.3-6.8-17.3-11.8-4.6-5-8.6-10.9-10.9-17.8-2.7-6.8-4.1-14.6-4.1-23.2 0-8.2 1.4-15.9 4.1-22.8s6.4-12.7 10.9-17.8 10.5-9.1 17.3-11.8c6.8-2.7 14.1-4.1 22.8-4.1 8.2 0 15.9 1.4 22.8 4.1 6.8 2.7 12.3 6.8 17.3 11.8 4.6 5 8.6 10.9 10.9 17.8 2.7 6.8 4.1 14.6 4.1 22.8-.5 8.7-1.8 16.4-4.6 23.2z" fill="none"/><path d="M132.9 273.7c9.1-1.8 17.3-5 25-9.6s13.7-10.5 18.7-18.2c5-7.7 7.3-17.3 7.3-28.2 0-6.8-.9-13.2-3.2-19.1-2.3-5.9-5.5-11.4-9.6-15.9-4.1-4.6-9.1-8.2-14.6-11.4-1.4-.9-3.2-1.4-5-2.3 5-3.2 9.6-6.8 13.2-11.4 6.8-8.2 10.5-18.2 10.5-30.5 0-11.4-2.3-20.9-7.3-28.2-4.6-6.8-10.9-12.7-18.2-16.4-7.3-3.6-15.5-6.4-24.6-7.7-8.6-1.4-17.3-1.8-25.9-1.8h-76.9v202.6h83.8c9.1.8 17.7-.1 26.8-1.9zm-105.6-2.3v-192.5h71.9c8.2 0 16.8.5 25 1.8 8.6 1.4 15.9 3.6 22.8 7.3 6.8 3.6 12.3 8.6 16.4 15 4.1 6.4 6.4 14.6 6.4 25.5s-3.2 20-9.1 26.9c-5.9 7.3-14.1 12.3-24.1 15.5v.5c6.4.9 12.3 2.7 17.3 5.5 5 2.7 9.6 5.9 13.2 10 3.6 4.1 6.4 8.6 8.6 14.1 1.8 5.5 3.2 11.4 3.2 17.3 0 10-2.3 18.7-6.4 25.5-4.6 6.8-10 12.3-16.8 16.4-6.8 4.1-14.6 7.3-23.2 9.1s-17.3 2.7-25.5 2.7h-79.7v-.6z" fill="none"/><path d="M110.2 154.9c3.2-.9 5.9-1.8 8.6-3.6 2.7-1.8 4.6-3.6 5.9-6.4 1.4-2.7 2.3-5.9 2.3-10s-.9-7.3-2.7-10c-1.8-2.7-4.1-4.6-6.8-5.9-2.7-1.4-5.9-2.3-9.1-3.2-3.6-.5-6.8-.9-10-.9h-28.8v41h30.5c3.7-.1 6.9-.6 10.1-1zm-35.6-35.1h23.7c2.7 0 5.9.5 9.1.9 2.7.5 5.5 1.4 7.7 2.7 1.8.9 3.6 2.3 5 4.6 1.4 1.8 1.8 4.1 1.8 7.3 0 2.7-.5 5.5-1.8 7.3-1.4 1.8-2.7 3.6-4.6 4.6-1.8 1.4-4.6 2.3-6.8 2.7-2.7.5-5.5.9-8.6.9h-25.5v-31z" fill="none"/><path d="M136.1 213.1c0-4.6-.9-8.2-3.2-10.9s-5-5-8.6-6.4c-3.6-1.4-7.3-2.3-10.9-3.2-4.1-.5-7.7-.9-10.9-.9h-31.9v43.7h38.2c3.2 0 6.4-.5 10-.9 3.2-.9 6.4-1.8 9.1-3.6 2.7-1.8 5-4.1 6.8-7.3.5-3.2 1.4-6.4 1.4-10.5zm-6.8 7.8c-1.4 2.3-3.2 4.1-5 5.5-2.3 1.4-4.6 2.3-7.3 3.2-3.2.5-5.9.9-8.6.9h-32.8v-33.7h26.9c3.2 0 6.8.5 10.5.9 3.6.5 6.8 1.4 10 2.7 2.7.9 5 2.7 6.4 5 1.4 1.8 2.3 4.6 2.3 7.7-.6 3.2-1.5 5.5-2.4 7.8z" fill="none"/><path d="M636.8 276.4h52.8v-85.6l76.5-117h-62.8l-40.1 66.9-37.8-66.9h-65.1l76.5 117v85.6zm-67.4-197.5h52.8l41 71.9 43.2-71.9h50.6l-72.4 110.6v81.9h-42.8v-81.9l-72.4-110.6z" fill="none"/><path d="M130.2 394.3c-1.8-2.3-4.6-4.1-8.2-5.5-7.3-2.3-12.7-3.2-19.1-1.8-2.3.5-4.1 1.4-5.9 2.3-1.4.5-1.8 1.4-2.7 2.3-.5.5-.5 1.4-.5 1.8 0 2.3.5 2.3 1.4 2.7 3.2 2.3 7.7 4.6 13.2 6.4 6.4 2.3 13.2 4.1 20.9 6.4 8.6 2.3 16.8 5.9 24.6 10.5 6.8 4.1 13.2 10 17.8 16.4v-64.6l-32.3 34.6-9.2-11.5z" fill="none"/><g fill="none"><path d="M572.6 334.2v47.8h55.1v154.8h52.8v-154.8h55.1v-47.8h-163zm157.5 42.4h-55.1v154.8h-42.3v-154.8h-55.1v-37.3h152.5v37.3zM92.9 382.5c2.3-1.4 5-2.3 7.7-2.7 7.7-1.8 15-.9 23.7 1.8 5 1.8 8.6 4.6 11.8 8.2l3.6 4.6 36.4-40.1-3.6-3.6c-8.6-7.7-18.7-13.2-29.1-16.4-20-5.9-41.9-6.4-61.9-.9-9.6 2.7-17.8 7.3-25 12.7-7.3 5.9-13.2 12.7-17.8 21.4-4.6 8.6-6.8 18.7-6.8 29.6 0 11.8 2.7 21.4 7.7 28.7 5 7.3 10.9 12.7 18.2 17.3 6.8 4.1 14.6 7.7 22.8 10 7.7 2.3 15 4.6 21.4 6.8 6.4 2.3 11.4 5 15.5 7.7 3.2 2.3 4.6 5.5 4.6 9.6 0 2.3-.5 4.6-1.8 5.9-1.4 1.8-3.2 3.6-5 4.6-2.3 1.4-5 2.3-8.2 3.2-9.6 2.3-19.1.9-27.8-3.2-5.9-2.7-10.9-6.8-14.6-11.8l-3.6-5-37.8 41.4 3.6 3.6c9.6 9.1 20.5 15.5 31.9 19.6s23.7 5.9 36.4 5.9c10.5 0 20.5-1.4 29.6-4.1 9.6-2.7 18.2-6.8 25.5-12.7 7.3-5.9 13.2-12.7 17.8-21.4 4.6-8.6 6.4-18.7 6.4-30.5 0-12.3-2.3-22.3-7.3-29.6-4.6-7.3-10.9-13.2-18.2-17.8-6.8-4.1-14.6-7.3-22.8-9.6-7.7-2.3-14.6-4.1-20.9-6.4-5.9-1.8-11.4-4.6-15-7.3-3.2-2.3-4.6-5-4.6-9.1 0-2.7.5-4.6 1.8-6.4 1.7-1.3 3.1-2.7 5.4-4zm-9.1 1.8c-1.8 2.7-2.7 5.5-2.7 9.1 0 5.9 2.3 10.5 6.4 13.2 4.6 3.2 10 5.9 16.4 7.7 6.8 2.3 13.7 4.6 21.4 6.4 7.7 2.3 14.6 5.5 21.4 9.1 6.8 4.1 12.3 9.6 16.4 15.9 4.6 6.8 6.4 15.5 6.4 26.9 0 10.9-1.8 20-5.9 28.2-4.1 8.2-9.6 14.6-16.4 20-6.8 5.5-14.6 9.1-23.7 11.8s-18.7 3.6-28.2 3.6c-12.3 0-24.1-1.8-34.6-5.9-10.5-3.6-20.5-10-30-18.7l30-33.2c4.6 5.9 10 10.5 16.4 13.7 6.8 3.2 13.7 4.6 20.5 4.6 3.6 0 6.8-.5 10.5-1.4 3.6-.9 6.8-1.8 9.6-3.6 2.7-1.8 5-3.6 6.8-6.4 1.8-2.7 2.7-5.5 2.7-9.1 0-5.9-2.3-10.5-6.8-13.7s-10-6.4-16.8-8.6c-6.8-2.3-14.1-4.6-21.8-7.3-7.7-2.3-15-5.5-21.8-9.6-6.8-4.1-12.3-9.1-16.8-15.9-4.6-6.4-6.8-15-6.8-25.9 0-10.5 1.8-19.6 5.9-27.3s9.6-14.1 16.4-19.6c6.8-5.5 14.6-9.1 23.7-11.8s18.2-4.1 27.3-4.1c10.9 0 21.4 1.4 31.4 4.6s19.1 8.2 27.3 15.5l-29.1 31.9c-3.6-4.6-8.2-7.7-14.1-9.6-5.9-2.3-11.4-3.2-16.8-3.2-3.2 0-6.4.5-9.6.9-3.2.9-6.4 1.8-9.1 3.2-1.9 4-4.6 5.9-5.9 8.6zM309.1 406.1h-77.8v-71.9h-52.3v202.6h52.8v-83.3h77.8v83.3h52.8v-202.6h-53.3v71.9zm5-66.9h42.3v192.5h-42.3v-83.3h-87.8v83.3h-42.3v-192.5h42.3v71.9h87.8v-71.9z"/></g><path fill="#7AC943" d="M569.4 398.9c-16.4-26.4-33.7-52.8-50.5-78.3l-38.2-58.3-36.9 56.9c-16.8 25.9-34.6 52.8-51.4 79.7-18.7 30.5-20.5 69.2-4.6 101 17.3 35 54.2 57.4 93.8 57.4 15.9 0 31.4-3.6 45.5-10.5 25.9-12.7 45.1-36.4 53.3-64.6 8.1-28.3 4-58.8-11-83.3z"/><path fill="#5C9434" d="M565.9 446.5c-7.1 24.5-23.7 44.7-45.5 55.4-12.2 5.9-25.3 8.9-38.9 8.9-34.1 0-65.6-19.2-80.3-49-3.7-7.4-6.3-15.3-7.8-23.4-3.4 18.8-.9 38.5 7.8 55.9 14.7 29.8 46.2 49 80.3 49 13.6 0 26.7-3 38.9-8.9 21.8-10.7 38.4-30.9 45.5-55.4 3.9-13.6 4.6-27.8 2.1-41.4-.5 3-1.2 5.9-2.1 8.9z"/><g fill="#fff"><path d="M146.6 430.3c-6.8-4.1-13.7-7.3-21.4-9.1-7.7-2.3-14.6-4.6-21.4-6.4-6.8-2.3-12.3-5-16.4-7.7-4.6-3.2-6.4-7.7-6.4-13.2 0-3.6.9-6.8 2.7-9.1 1.8-2.7 4.1-4.6 7.3-5.9 2.7-1.4 5.9-2.7 9.1-3.2 3.2-.9 6.4-.9 9.6-.9 5.5 0 10.9.9 16.8 3.2 5.9 2.3 10.5 5.5 14.1 9.6l29.1-31.9c-8.2-7.3-17.3-12.3-27.3-15.5-10-3.2-20.5-4.6-31.4-4.6-9.6 0-18.7 1.4-27.3 4.1-9.1 2.7-16.8 6.4-23.7 11.8-6.8 5.5-12.3 11.8-16.4 19.6-4.1 7.7-5.9 16.8-5.9 27.3 0 10.9 2.3 19.1 6.8 25.9 4.6 6.4 10 11.8 16.8 15.9s14.1 7.3 21.8 9.6c7.7 2.3 15 4.6 21.8 7.3 6.8 2.3 12.3 5 16.8 8.6 4.6 3.2 6.8 7.7 6.8 13.7 0 3.6-.9 6.4-2.7 9.1s-4.1 4.6-6.8 6.4c-2.7 1.8-5.9 2.7-9.6 3.6-3.6.9-6.8 1.4-10.5 1.4-7.3 0-14.1-1.4-20.5-4.6-6.8-3.2-12.3-7.7-16.4-13.7l-30 33.2c9.1 8.6 19.1 14.6 30 18.7 10.5 3.6 22.3 5.9 34.6 5.9 10 0 19.6-1.4 28.2-3.6 9.1-2.7 16.8-6.4 23.7-11.8 6.8-5.5 12.3-11.8 16.4-20 4.1-8.2 5.9-17.3 5.9-28.2 0-11.4-2.3-20-6.4-26.9-6-9.1-11.5-14.5-17.8-18.6z"/><polygon points="314.1,411.1 226.2,411.1 226.2,339.2 183.9,339.2 183.9,531.8 226.2,531.8 226.2,448.5 314.1,448.5 314.1,531.8 356.4,531.8 356.4,339.2 314.1,339.2"/><polygon points="577.6,339.2 577.6,376.6 632.7,376.6 632.7,531.8 675,531.8 675,376.6 730.1,376.6 730.1,339.2"/><path d="M586.7 175.8c0-17.8-3.2-32.3-9.1-45.1-5.9-12.3-14.1-22.3-24.6-30-10.5-7.7-22.3-13.2-36.4-16.8-13.7-3.6-28.7-5-43.7-5h-63.7v192.5h42.3l25.9-39.1h-25.400000000000002v-114.3h25c8.6 0 17.3.9 25.5 3.2 8.2 2.3 15 5.5 20.9 10 5.9 4.6 10.9 10.5 14.1 17.3 3.6 6.8 5.5 15 5.5 24.6 0 10.9-1.8 20-5.5 27.8-3.6 7.7-8.2 13.7-14.6 18.2-6.4 4.6-13.7 7.7-21.8 10-5.5 1.4-11.4 1.8-17.3 2.3l24.1 36.4c3.6-.9 7.7-1.8 11.4-3.2 13.2-4.1 24.6-10.5 34.6-18.2 10-8.2 17.8-18.2 23.7-30 6.4-11.4 9.1-25.1 9.1-40.6zM366.4 102.1c-9.1-8.6-20-15.5-32.8-20.5-12.7-4.6-26.4-7.3-41.4-7.3s-29.1 2.3-41.4 7.3c-12.7 4.6-23.7 11.4-32.8 20.5-9.1 8.6-16.4 19.6-21.4 31.9-5 12.3-7.7 26.4-7.7 41.9s2.7 29.6 7.7 41.9 12.3 23.2 21.4 31.9c9.1 8.6 20 15.5 32.8 20.5 12.7 4.6 26.4 7.3 41.4 7.3s29.1-2.3 41.4-7.3c12.7-4.6 23.7-11.4 32.8-20.5 9.1-8.6 16.4-19.6 21.4-31.9 5-12.3 7.7-26.4 7.7-41.9s-2.7-29.6-7.7-41.9c-5-12.3-11.8-23.3-21.4-31.9zm-14.6 73.7c0 9.1-1.4 17.3-4.1 25-2.7 7.7-6.8 14.1-12.3 19.6-5.5 5.5-11.4 10-19.1 12.7-7.3 3.2-15.5 4.6-24.6 4.6s-17.3-1.4-24.6-4.6c-7.3-3.2-13.7-7.3-19.1-12.7-5.5-5.5-9.1-11.8-12.3-19.6-2.7-7.7-4.1-15.9-4.1-25s1.4-17.3 4.1-24.6c2.7-7.7 6.8-14.1 12.3-19.6 5.5-5.5 11.4-10 19.1-12.7 7.3-3.2 15.5-4.6 24.6-4.6s17.3 1.4 24.6 4.6 13.7 7.3 19.1 12.7c5.5 5.5 9.1 12.3 12.3 19.6 2.8 7.3 4.1 16 4.1 24.6zM167 186.3c-3.6-4.1-8.2-7.3-13.2-10s-10.9-4.6-17.3-5.5v-.5c10-3.2 18.2-8.2 24.1-15.5s9.1-16.4 9.1-26.9-2.3-19.1-6.4-25.5c-4.1-6.4-9.6-11.4-16.4-15-6.8-3.6-14.1-5.9-22.8-7.3-8.6-1.4-16.8-1.8-25-1.8h-71.8v192.7h78.7c8.6 0 17.3-.9 25.5-2.7 8.6-1.8 16.4-5 23.2-9.1 6.8-4.1 12.3-9.6 16.8-16.4 4.6-6.8 6.4-15.5 6.4-25.5 0-6.4-.9-11.8-3.2-17.3-1.3-5.1-4-9.6-7.7-13.7zm-59.1 49.1h-38.3v-43.7h31.9c3.6 0 7.3.5 10.9.9 4.1.5 7.7 1.4 10.9 3.2 3.6 1.4 6.4 3.6 8.6 6.4 2.3 2.7 3.2 6.4 3.2 10.9 0 4.1-.9 7.7-2.7 10.5-1.8 2.7-4.1 5.5-6.8 7.3-2.7 1.8-5.9 3.2-9.1 3.6-2.3.5-5.4.9-8.6.9zm16.8-90.5c-1.4 2.7-3.6 5-5.9 6.4-2.7 1.8-5.5 2.7-8.6 3.6-3.2.9-6.4.9-9.6.9h-30.5v-41h28.7c3.2 0 6.8.5 10 .9 3.6.5 6.4 1.8 9.1 3.2 2.7 1.4 5 3.6 6.8 5.9 1.8 2.7 2.7 5.9 2.7 10-.4 3.7-1.3 7.3-2.7 10.1z"/><polygon points="641.8,271.4 684.6,271.4 684.6,189.5 756.5,78.9 706.4,78.9 663.2,150.8 622.2,78.9 569.4,78.9 641.8,189.5"/><path d="M482.5 311c2.7 4.1 5 7.7 7.7 11.4 18.2 27.8 37.3 56.9 55.1 85.6 4.1 6.4 6.8 13.7 8.6 21.4.5 1.8.9 4.1 1.4 6.4v1.8c0 15-12.3 27.8-27.8 27.8-15 0-27.8-12.3-27.8-27.3.5-3.7-9-77.9-17.2-127.1z"/></g></svg>