<svg xmlns="http://www.w3.org/2000/svg" viewBox="0 0 612 792" enable-background="new 0 0 612 792"><path d="M457.2 295.4c0-14.1-2.5-26.3-7.4-36.5s-11.6-18.3-20-24.7c-8.4-6.3-18.2-10.9-29.5-13.7-10.9-2.8-22.9-4.2-34.9-4.2h-53.1v156.6h34.2l25.3-38.3 8.1 12-5.3-8.1c4.6-.4 8.8-1.1 13-1.8 6.6-1.4 12.3-4.2 16.8-7.7 4.9-3.6 8.4-8.1 11.3-14.1 2.8-5.9 4.2-13 4.2-21.5 0-7.4-1.4-13.8-4.2-19-2.8-5.3-6.3-9.8-10.9-13.4-4.6-3.6-10.2-5.9-16.1-7.7-6.3-1.8-12.7-2.5-19.7-2.5h-19.3v88.2h19.3l-19.8 30.3h-32.7v-148.8h49.2c12 0 23.2 1.4 33.8 3.9 10.6 2.8 20 7 28.1 13 8.1 5.9 14.5 13.8 19 23.2 4.6 9.4 7 21.1 7 34.9 0 12-2.1 22.5-6.6 31.7-4.6 9.1-10.6 16.8-18.3 23.2-7.7 6.3-16.5 10.9-26.7 14.1-2.8 1.1-5.6 1.8-8.8 2.5l2.5 3.6c2.5-.7 5.3-1.4 7.7-2.1 10.6-3.6 20-8.4 27.8-14.8 8.1-6.6 14.8-14.8 19.3-24.3 4.6-10.1 6.7-21.3 6.7-34zm-90 39.8h-14.1v-80.6h15.5c6.3 0 12.7.7 18.6 2.5 5.6 1.8 10.9 3.9 15.1 7.4 4.2 3.2 7.4 7 9.8 12 2.5 4.9 3.6 10.6 3.6 17.2 0 7.7-1.4 14.4-3.9 19.7-2.5 5.3-6 9.5-10.2 12.7s-9.5 5.6-15.5 7c-3.6.7-7.4 1.4-12.3 1.8l-6.6.3z" fill="none"/><path d="M286 235.6c-7.4-7-16.5-12.7-26.7-16.5-20.4-7.7-46.8-7.7-67.1 0-10.2 3.9-19.3 9.5-26.7 16.5s-13.4 15.8-17.6 26-6.3 21.5-6.3 33.8c0 12.3 2.1 24 6.3 33.8 4.2 10.2 10.2 19 17.6 26 7.4 7 16.5 12.7 26.7 16.5 10.2 3.9 21.5 5.6 33.4 5.6s23.2-1.8 33.4-5.6c10.2-3.9 19.3-9.5 26.7-16.5 7.4-7 13.4-15.8 17.6-26 4.2-10.2 6.3-21.5 6.3-33.8 0-12.3-2.1-24-6.3-33.8-3.9-10.2-10-19-17.3-26zm14 92.2c-3.9 9.5-9.5 17.9-16.5 24.6-7 6.6-15.5 12-25.3 15.8-9.8 3.6-20.4 5.6-32 5.6s-22.5-1.8-32-5.6c-9.8-3.6-18.3-8.8-25.3-15.8-7-6.6-12.7-15.1-16.5-24.6-3.9-9.5-5.9-20.4-5.9-32.4s2.1-22.9 5.9-32.4c3.9-9.5 9.5-17.9 16.5-24.7 7-6.6 15.5-12 25.3-15.8 9.8-3.6 20.4-5.6 32-5.6s22.5 1.8 32 5.6c9.8 3.6 18.3 8.8 25.3 15.8 7 6.6 12.7 15.1 16.5 24.7 3.9 9.5 6 20.4 6 32.4s-2.1 22.9-6 32.4z" fill="none"/><path d="M259.2 260.9c-4.2-4.2-8.8-7.7-14.8-9.8-5.6-2.5-12-3.6-19-3.6s-13.4 1.1-19 3.6-10.6 5.6-14.8 9.8c-4.2 4.2-7 9.5-9.5 15.1-2.1 6-3.2 12.3-3.2 19 0 7 1.1 13.4 3.2 19.3 2.1 6 5.3 10.9 9.5 15.1s8.8 7.7 14.8 9.8c5.6 2.5 12 3.6 19 3.6s13.4-1.1 19-3.6 10.6-5.6 14.8-9.8c4.2-4.2 7-9.1 9.5-15.1 2.1-5.9 3.2-12.3 3.2-19.3s-1.1-13.4-3.2-19-5.3-10.5-9.5-15.1zm5.6 52.4c-2.1 5.3-4.9 9.8-8.4 13.8-3.6 3.9-8.1 7-13.4 9.1-10.2 4.2-24.6 4.2-34.9 0-5.3-2.1-9.5-5.3-13.4-9.1-3.6-3.9-6.6-8.4-8.4-13.8-2.1-5.3-3.2-11.3-3.2-17.9 0-6.3 1.1-12.3 3.2-17.6 2.1-5.3 4.9-9.8 8.4-13.8 3.5-3.9 8.1-7 13.4-9.1 5.3-2.1 10.9-3.2 17.6-3.2 6.3 0 12.3 1.1 17.6 3.2 5.3 2.1 9.5 5.3 13.4 9.1 3.6 3.9 6.6 8.4 8.4 13.8 2.1 5.3 3.2 11.3 3.2 17.6-.3 6.7-1.3 12.7-3.5 17.9z" fill="none"/><path d="M102.7 371c7-1.4 13.4-3.9 19.3-7.4 5.9-3.6 10.6-8.1 14.4-14.1 3.9-5.9 5.6-13.4 5.6-21.8 0-5.3-.7-10.2-2.5-14.8-1.8-4.6-4.2-8.8-7.4-12.3-3.2-3.6-7-6.3-11.3-8.8-1.1-.7-2.5-1.1-3.9-1.8 3.9-2.5 7.4-5.3 10.2-8.8 5.3-6.3 8.1-14.1 8.1-23.6 0-8.8-1.8-16.1-5.6-21.8-3.6-5.3-8.4-9.8-14.1-12.7-5.6-2.8-12-4.9-19-5.9-6.6-1.1-13.4-1.4-20-1.4h-59.3v156.6h64.8c7 .7 13.7 0 20.7-1.4zm-81.6-1.7v-148.8h55.6c6.3 0 13 .4 19.3 1.4 6.6 1.1 12.3 2.8 17.6 5.6 5.3 2.8 9.5 6.6 12.7 11.6 3.2 4.9 4.9 11.3 4.9 19.7s-2.5 15.5-7 20.8c-4.6 5.6-10.9 9.5-18.6 12v.4c4.9.7 9.5 2.1 13.4 4.2 3.9 2.1 7.4 4.6 10.2 7.7s4.9 6.6 6.6 10.9c1.4 4.2 2.5 8.8 2.5 13.4 0 7.7-1.8 14.5-4.9 19.7-3.6 5.3-7.7 9.5-13 12.7s-11.3 5.6-17.9 7c-6.6 1.4-13.4 2.1-19.7 2.1h-61.7v-.4z" fill="none"/><path d="M85.2 279.2c2.5-.7 4.6-1.4 6.6-2.8 2.1-1.4 3.6-2.8 4.6-4.9 1.1-2.1 1.8-4.6 1.8-7.7s-.7-5.6-2.1-7.7c-1.4-2.1-3.2-3.6-5.3-4.6-2.1-1.1-4.6-1.8-7-2.5-2.8-.4-5.3-.7-7.7-.7h-22.3v31.7h23.6c2.8-.1 5.3-.5 7.8-.8zm-27.6-27.1h18.4c2.1 0 4.6.4 7 .7 2.1.4 4.2 1.1 5.9 2.1 1.4.7 2.8 1.8 3.9 3.6 1.1 1.4 1.4 3.2 1.4 5.6 0 2.1-.4 4.2-1.4 5.6-1.1 1.4-2.1 2.8-3.6 3.6-1.4 1.1-3.6 1.8-5.3 2.1-2.1.4-4.2.7-6.6.7h-19.7v-24z" fill="none"/><path d="M105.2 324.2c0-3.6-.7-6.3-2.5-8.4s-3.9-3.9-6.6-4.9c-2.8-1.1-5.6-1.8-8.4-2.5-3.2-.4-5.9-.7-8.4-.7h-24.7v33.8h29.5c2.5 0 4.9-.4 7.7-.7 2.5-.7 4.9-1.4 7-2.8 2.1-1.4 3.9-3.2 5.3-5.6.4-2.5 1.1-5 1.1-8.2zm-5.3 6c-1.1 1.8-2.5 3.2-3.9 4.2-1.8 1.1-3.6 1.8-5.6 2.5-2.5.4-4.6.7-6.6.7h-25.4v-26h20.8c2.5 0 5.3.4 8.1.7 2.8.4 5.3 1.1 7.7 2.1 2.1.7 3.9 2.1 4.9 3.9 1.1 1.4 1.8 3.6 1.8 6-.4 2.4-1.1 4.2-1.8 5.9z" fill="none"/><path d="M492.1 373.1h40.8v-66.1l59.1-90.4h-48.5l-31 51.7-29.2-51.7h-50.3l59.1 90.4v66.1zm-52.1-152.6h40.8l31.7 55.6 33.4-55.6h39.1l-56 85.5v63.3h-33.1v-63.3l-55.9-85.5z" fill="none"/><path d="M100.6 464.2c-1.4-1.8-3.6-3.2-6.3-4.2-5.6-1.8-9.8-2.5-14.8-1.4-1.8.4-3.2 1.1-4.6 1.8-1.1.4-1.4 1.1-2.1 1.8-.4.4-.4 1.1-.4 1.4 0 1.8.4 1.8 1.1 2.1 2.5 1.8 5.9 3.6 10.2 4.9 4.9 1.8 10.2 3.2 16.2 4.9 6.6 1.8 13 4.6 19 8.1 5.3 3.2 10.2 7.7 13.8 12.7v-49.9l-25 26.7-7.1-8.9z" fill="none"/><g fill="none"><path d="M442.5 417.8v36.9h42.5v119.6h40.8v-119.6h42.6v-36.9h-125.9zm121.7 32.8h-42.6v119.6h-32.7v-119.6h-42.6v-28.8h117.8l.1 28.8zM71.8 455.1c1.8-1.1 3.9-1.8 5.9-2.1 5.9-1.4 11.6-.7 18.3 1.4 3.9 1.4 6.6 3.6 9.1 6.3l2.8 3.6 28.1-31-2.8-2.8c-6.6-6-14.5-10.2-22.5-12.7-15.5-4.6-32.4-4.9-47.8-.7-7.4 2.1-13.8 5.6-19.3 9.8-5.6 4.6-10.2 9.8-13.8 16.5-3.6 6.6-5.3 14.4-5.3 22.9 0 9.1 2.1 16.5 6 22.2s8.4 9.8 14.1 13.4c5.3 3.2 11.3 5.9 17.6 7.7 5.9 1.8 11.6 3.6 16.5 5.3 4.9 1.8 8.8 3.9 12 6 2.5 1.8 3.6 4.2 3.6 7.4 0 1.8-.4 3.6-1.4 4.6-1.1 1.4-2.5 2.8-3.9 3.6-1.8 1.1-3.9 1.8-6.3 2.5-7.4 1.8-14.8.7-21.5-2.5-4.6-2.1-8.4-5.3-11.3-9.1l-2.8-3.9-29.2 32 2.8 2.8c7.4 7 15.8 12 24.6 15.1s18.3 4.6 28.1 4.6c8.1 0 15.8-1.1 22.9-3.2 7.4-2.1 14.1-5.3 19.7-9.8 5.6-4.6 10.2-9.8 13.8-16.5 3.6-6.6 4.9-14.5 4.9-23.6 0-9.5-1.8-17.2-5.6-22.9-3.6-5.6-8.4-10.2-14.1-13.8-5.3-3.2-11.3-5.6-17.6-7.4-5.9-1.8-11.3-3.2-16.2-4.9-4.6-1.4-8.8-3.6-11.6-5.6-2.5-1.8-3.6-3.9-3.6-7 0-2.1.4-3.6 1.4-4.9 1.5-1.2 2.6-2.3 4.4-3.3zm-7 1.4c-1.4 2.1-2.1 4.2-2.1 7 0 4.6 1.8 8.1 4.9 10.2 3.6 2.5 7.7 4.6 12.7 6 5.3 1.8 10.6 3.6 16.5 4.9 6 1.8 11.3 4.2 16.5 7 5.3 3.2 9.5 7.4 12.7 12.3 3.6 5.3 4.9 12 4.9 20.8 0 8.4-1.4 15.5-4.6 21.8s-7.4 11.3-12.7 15.5c-5.3 4.2-11.3 7-18.3 9.1-7 2.1-14.4 2.8-21.8 2.8-9.5 0-18.6-1.4-26.7-4.6-8.1-2.8-15.8-7.7-23.2-14.5l23.2-25.7c3.6 4.6 7.7 8.1 12.7 10.6 5.3 2.5 10.6 3.6 15.8 3.6 2.8 0 5.3-.4 8.1-1.1 2.8-.7 5.3-1.4 7.4-2.8 2.1-1.4 3.9-2.8 5.3-4.9 1.4-2.1 2.1-4.2 2.1-7 0-4.6-1.8-8.1-5.3-10.6s-7.7-4.9-13-6.6c-5.3-1.8-10.9-3.6-16.8-5.6-5.9-1.8-11.6-4.2-16.8-7.4s-9.5-7-13-12.3c-3.6-4.9-5.3-11.6-5.3-20 0-8.1 1.4-15.1 4.6-21.1 3.2-5.9 7.4-10.9 12.7-15.1 5.3-4.2 11.3-7 18.3-9.1 7-2.1 14.1-3.2 21.1-3.2 8.4 0 16.5 1.1 24.3 3.6 7.7 2.5 14.8 6.3 21.1 12l-22.5 24.6c-2.8-3.6-6.3-6-10.9-7.4-4.6-1.8-8.8-2.5-13-2.5-2.5 0-4.9.4-7.4.7-2.5.7-4.9 1.4-7 2.5-1.5 3-3.5 4.4-4.5 6.5zM238.8 473.4h-60.1v-55.6h-40.4v156.6h40.8v-64.4h60.1v64.4h40.8v-156.6h-41.2v55.6zm3.9-51.7h32.7v148.8h-32.7v-64.5h-67.8v64.4h-32.7v-148.7h32.7v55.6h67.8v-55.6z"/></g><path fill="#7AC943" d="M440 467.8c-12.7-20.4-26-40.8-39-60.5l-29.5-45-28.5 44c-13 20-26.7 40.8-39.7 61.6-14.5 23.6-15.8 53.5-3.6 78 13.4 27 41.9 44.4 72.5 44.4 12.3 0 24.3-2.8 35.2-8.1 20-9.8 34.8-28.1 41.2-49.9 6.2-22 3-45.6-8.6-64.5z"/><path fill="#5C9434" d="M437.3 504.6c-5.5 18.9-18.3 34.5-35.2 42.8-9.4 4.6-19.5 6.9-30.1 6.9-26.4 0-50.7-14.8-62.1-37.9-2.9-5.7-4.9-11.8-6-18.1-2.6 14.5-.7 29.8 6 43.2 11.4 23 35.7 37.9 62 37.9 10.5 0 20.6-2.3 30.1-6.9 16.8-8.3 29.7-23.9 35.2-42.8 3-10.5 3.6-21.5 1.6-32-.3 2.3-.8 4.5-1.5 6.9z"/><g fill="#fff"><path d="M113.3 492c-5.3-3.2-10.6-5.6-16.5-7-5.9-1.8-11.3-3.6-16.5-4.9-5.3-1.8-9.5-3.9-12.7-6-3.6-2.5-4.9-6-4.9-10.2 0-2.8.7-5.3 2.1-7 1.4-2.1 3.2-3.6 5.6-4.6 2.1-1.1 4.6-2.1 7-2.5 2.5-.7 4.9-.7 7.4-.7 4.2 0 8.4.7 13 2.5s8.1 4.2 10.9 7.4l22.5-24.6c-6.3-5.6-13.4-9.5-21.1-12-7.7-2.5-15.8-3.6-24.3-3.6-7.4 0-14.4 1.1-21.1 3.2-7 2.1-13 4.9-18.3 9.1-5.3 4.2-9.5 9.1-12.7 15.1-3.2 5.9-4.6 13-4.6 21.1 0 8.4 1.8 14.8 5.3 20 3.6 4.9 7.7 9.1 13 12.3s10.9 5.6 16.8 7.4 11.6 3.6 16.8 5.6c5.3 1.8 9.5 3.9 13 6.6 3.6 2.5 5.3 6 5.3 10.6 0 2.8-.7 4.9-2.1 7-1.4 2.1-3.2 3.6-5.3 4.9-2.1 1.4-4.6 2.1-7.4 2.8-2.8.7-5.3 1.1-8.1 1.1-5.6 0-10.9-1.1-15.8-3.6-5.3-2.5-9.5-6-12.7-10.6l-23.2 25.7c7 6.6 14.8 11.3 23.2 14.5 8.1 2.8 17.2 4.6 26.7 4.6 7.7 0 15.1-1.1 21.8-2.8 7-2.1 13-4.9 18.3-9.1 5.3-4.2 9.5-9.1 12.7-15.5 3.2-6.3 4.6-13.4 4.6-21.8 0-8.8-1.8-15.5-4.9-20.8-4.7-6.8-9-11-13.8-14.2z"/><polygon points="242.7,477.2 174.8,477.2 174.8,421.7 142.1,421.7 142.1,570.5 174.8,570.5 174.8,506.1 242.7,506.1 242.7,570.5 275.4,570.5 275.4,421.7 242.7,421.7"/><polygon points="446.3,421.7 446.3,450.6 488.9,450.6 488.9,570.5 521.6,570.5 521.6,450.6 564.2,450.6 564.2,421.7"/><path d="M453.4 295.4c0-13.8-2.5-25-7-34.8-4.6-9.5-10.9-17.2-19-23.2-8.1-5.9-17.2-10.2-28.1-13-10.6-2.8-22.2-3.9-33.8-3.9h-49.2v148.8h32.7l20-30.2h-19.6v-88.3h19.3c6.6 0 13.4.7 19.7 2.5s11.6 4.2 16.2 7.7c4.6 3.6 8.4 8.1 10.9 13.4 2.8 5.3 4.2 11.6 4.2 19 0 8.4-1.4 15.5-4.2 21.5-2.8 5.9-6.3 10.6-11.3 14.1-4.9 3.6-10.6 5.9-16.8 7.7-4.2 1.1-8.8 1.4-13.4 1.8l18.6 28.1c2.8-.7 6-1.4 8.8-2.5 10.2-3.2 19-8.1 26.7-14.1 7.7-6.3 13.8-14.1 18.3-23.2 4.9-8.8 7-19.4 7-31.4zM283.1 238.4c-7-6.6-15.5-12-25.3-15.8-9.8-3.6-20.4-5.6-32-5.6s-22.5 1.8-32 5.6c-9.8 3.6-18.3 8.8-25.3 15.8-7 6.6-12.7 15.1-16.5 24.7s-5.9 20.4-5.9 32.4 2.1 22.9 5.9 32.4c3.9 9.5 9.5 17.9 16.5 24.6 7 6.6 15.5 12 25.3 15.8 9.8 3.6 20.4 5.6 32 5.6s22.5-1.8 32-5.6c9.8-3.6 18.3-8.8 25.3-15.8 7-6.6 12.7-15.1 16.5-24.6 3.9-9.5 6-20.4 6-32.4s-2.1-22.9-6-32.4c-3.8-9.5-9.1-18-16.5-24.7zm-11.3 57c0 7-1.1 13.4-3.2 19.3-2.1 6-5.3 10.9-9.5 15.1-4.3 4.2-8.8 7.7-14.8 9.8-5.6 2.5-12 3.6-19 3.6s-13.4-1.1-19-3.6-10.6-5.6-14.8-9.8c-4.2-4.2-7-9.1-9.5-15.1-2.1-5.9-3.2-12.3-3.2-19.3s1.1-13.4 3.2-19c2.1-5.9 5.3-10.9 9.5-15.1s8.8-7.7 14.8-9.8c5.6-2.5 12-3.6 19-3.6s13.4 1.1 19 3.6 10.6 5.6 14.8 9.8c4.2 4.2 7 9.5 9.5 15.1 2.2 5.6 3.2 12.3 3.2 19zM129 303.5c-2.8-3.2-6.3-5.6-10.2-7.7-3.9-2.1-8.4-3.6-13.4-4.2v-.4c7.7-2.5 14.1-6.3 18.6-12 4.6-5.6 7-12.7 7-20.8 0-8.1-1.8-14.8-4.9-19.7-3.2-4.9-7.4-8.8-12.7-11.6-5.3-2.8-10.9-4.6-17.6-5.6-6.6-1.1-13-1.4-19.3-1.4h-55.4v148.9h60.8c6.6 0 13.4-.7 19.7-2.1 6.6-1.4 12.7-3.9 17.9-7s9.5-7.4 13-12.7c3.6-5.3 4.9-12 4.9-19.7 0-4.9-.7-9.1-2.5-13.4-.9-4-3-7.4-5.9-10.6zm-45.6 37.9h-29.6v-33.8h24.7c2.8 0 5.6.4 8.4.7 3.2.4 5.9 1.1 8.4 2.5 2.8 1.1 4.9 2.8 6.6 4.9 1.8 2.1 2.5 4.9 2.5 8.4 0 3.2-.7 5.9-2.1 8.1-1.4 2.1-3.2 4.2-5.3 5.6-2.1 1.4-4.6 2.5-7 2.8-1.8.5-4.2.8-6.6.8zm13-69.9c-1.1 2.1-2.8 3.9-4.6 4.9-2.1 1.4-4.2 2.1-6.6 2.8-2.5.7-4.9.7-7.4.7h-23.6v-31.7h22.2c2.5 0 5.3.4 7.7.7 2.8.4 4.9 1.4 7 2.5 2.1 1.1 3.9 2.8 5.3 4.6 1.4 2.1 2.1 4.6 2.1 7.7-.4 2.9-1.1 5.7-2.1 7.8z"/><polygon points="495.9,369.3 529,369.3 529,306 584.6,220.5 545.9,220.5 512.5,276.1 480.8,220.5 440,220.5 495.9,306"/><path d="M372.8 399.9c2.1 3.2 3.9 6 5.9 8.8 14.1 21.5 28.8 44 42.6 66.1 3.2 4.9 5.3 10.6 6.6 16.5.4 1.4.7 3.2 1.1 4.9v1.4c0 11.6-9.5 21.5-21.5 21.5-11.6 0-21.5-9.5-21.5-21.1.5-2.8-6.8-60.1-13.2-98.1z"/></g><g fill="#fff"><path d="M43.6 660.1h-4.4l-23-54.1h9.1l15.9 38.1c.3.7.6 1.4.6 2.4.1-1 .2-1.5.7-2.4l14.7-38.1h9.1l-22.7 54.1zM109.3 658.7l-6.1-14.7h-22.6l-6 14.7h-8.4l21.5-54.1h8.3l21.5 54.1h-8.2zm-17.4-45.1l-9.1 23.6h18l-8.9-23.6zM147.3 638.9c-4.2 0-9.2-.6-11-1.1v21h-8.4v-52.8h18.3c12.6 0 19.3 5.6 19.3 16.2 0 9.8-7.5 16.7-18.2 16.7zm-2-26h-9.1v17.9c1.3.3 5.3 1.1 10.2 1.1 6.4 0 10.7-4 10.7-10 0-6.3-3.4-9-11.8-9zM199.8 659.7c-17 0-29.3-11.5-29.3-27.4 0-15.8 12.3-27.4 29.3-27.4 16.9 0 29.3 11.6 29.3 27.4 0 16-12.4 27.4-29.3 27.4zm0-47.7c-11.6 0-20.4 8.7-20.4 20.3 0 11.6 8.8 20.4 20.4 20.4 11.6 0 20.3-8.8 20.3-20.4 0-11.5-8.7-20.3-20.3-20.3zM272.8 658.7l-13.9-21.5h-7.6v21.5h-8.4v-52.7h17.8c12.7 0 19.7 5.3 19.7 15 0 8.2-5 14.4-12.4 15.6l14.6 22.2h-9.8zm-4.8-44.4c-1.8-1.3-2.4-1.4-8.5-1.4h-8.3v17.3h8.3c5.4 0 6.5-.2 8.8-2.2 2-1.8 2.9-3.9 2.9-6.7 0-3.1-1.1-5.4-3.2-7zM316 658.7v-52.7h8.4v45.8h25v7h-33.4zM358.7 658.7v-52.7h8.4v52.8h-8.4zM417.1 659.3c3.1 3.8 4.5 5.1 8 7.3 3.2 2.2 5.1 3.2 10.3 5.2l-4.5 5.9c-6.2-2.4-8.7-3.6-12.3-6.1-4.3-3-7.4-6.1-12-11.8-9.1-1.7-12.6-3.2-17.4-8-5.2-5.1-8.1-11.9-8.1-19.4 0-15.8 12.3-27.4 29.3-27.4 16.9 0 29.3 11.6 29.3 27.4-.2 13.3-8.5 23.3-22.6 26.9zm-6.9-47.3c-11.6 0-20.4 8.7-20.4 20.3 0 11.6 8.8 20.4 20.4 20.4s20.3-8.8 20.3-20.4c0-11.5-8.7-20.3-20.3-20.3zM489.3 656.3c-4 2.3-9.9 4-15 4s-11-1.7-15.1-4c-5.5-3.3-7.6-8.6-7.6-19.1v-31.2h8.3v32.7c0 9.6 5 14.6 14.5 14.6s14.5-5 14.5-14.6v-32.7h8.3v31.3c-.2 10.4-2.3 15.7-7.9 19zM515.5 658.7v-52.7h8.4v52.8h-8.4zM585.4 651.5c-4.7 5-11.5 7.3-21.8 7.3h-19.4v-52.8h19.4c10.2 0 17 2.3 21.9 7.3 4.3 4.4 7.5 12.5 7.5 19.1 0 6.7-2.9 14.1-7.6 19.1zm-8.3-34.9c-3.3-2.8-6.7-3.6-14.1-3.6h-10.4v38.9h9.7c7.6 0 11.3-1 14.9-3.9 4.2-3.4 7-9.7 7-15.7 0-6.1-2.6-12.1-7.1-15.7z"/></g></svg>