<svg xmlns="http://www.w3.org/2000/svg" width="88.667" height="29.333"><g fill="#CCDB29"><path d="M19.555 25.692h-.421l-2.191-5.163h.864l1.517 3.636c.032.063.053.137.053.232.01-.095.021-.147.064-.232l1.411-3.636h.864l-2.161 5.163zM25.822 25.566l-.579-1.401h-2.161l-.569 1.401h-.8l2.053-5.162h.791l2.054 5.162h-.789zm-1.655-4.309l-.864 2.254h1.717l-.853-2.254zM29.445 23.67c-.401 0-.875-.054-1.055-.106v2.002h-.801v-5.035h1.749c1.201 0 1.844.537 1.844 1.548.001.938-.716 1.591-1.737 1.591m-.191-2.477h-.864v1.707c.127.032.506.106.97.106.611 0 1.021-.379 1.021-.958.001-.601-.326-.855-1.127-.855"/><path d="M34.457 25.661c-1.623 0-2.792-1.096-2.792-2.613 0-1.505 1.17-2.611 2.792-2.611 1.612 0 2.791 1.106 2.791 2.611 0 1.517-1.179 2.613-2.791 2.613m0-4.551c-1.106 0-1.949.832-1.949 1.938 0 1.106.843 1.949 1.949 1.949s1.938-.843 1.938-1.949-.832-1.938-1.938-1.938"/><path d="M41.418 25.566l-1.328-2.055h-.727v2.055h-.801v-5.037h1.696c1.211 0 1.875.506 1.875 1.434 0 .779-.473 1.369-1.179 1.484l1.391 2.118h-.927zm-.452-4.235c-.169-.126-.232-.137-.811-.137h-.791v1.654h.791c.517 0 .622-.021.843-.21.189-.169.274-.369.274-.643 0-.296-.106-.517-.306-.664"/><polygon points="45.546,25.566 45.546,20.531 46.346,20.531 46.346,24.902 48.727,24.902 48.727,25.566"/><rect x="49.609" y="20.529" width=".803" height="5.037"/><path d="M55.182 25.618c.295.359.432.484.759.696.307.21.484.305.98.495l-.432.559c-.59-.232-.834-.348-1.17-.58-.412-.284-.706-.579-1.147-1.127-.864-.158-1.202-.305-1.666-.759-.496-.484-.77-1.138-.77-1.854 0-1.505 1.17-2.611 2.792-2.611 1.613 0 2.792 1.106 2.792 2.611.001 1.275-.789 2.223-2.138 2.57m-.653-4.508c-1.105 0-1.947.832-1.947 1.938 0 1.106.842 1.949 1.947 1.949s1.94-.843 1.94-1.949-.835-1.938-1.94-1.938"/><path d="M62.07 25.334c-.38.222-.948.379-1.434.379-.484 0-1.053-.157-1.441-.379-.527-.315-.727-.822-.727-1.823v-2.98h.788v3.118c0 .917.476 1.391 1.38 1.391.907 0 1.381-.474 1.381-1.391v-3.118h.79v2.98c0 1.001-.198 1.508-.737 1.823"/><rect x="64.576" y="20.529" width=".8" height="5.037"/><path d="M71.244 24.87c-.454.475-1.097.696-2.077.696h-1.853v-5.035h1.853c.972 0 1.623.22 2.087.694.411.422.717 1.191.717 1.822-.001.644-.286 1.35-.727 1.823m-.79-3.328c-.315-.264-.643-.349-1.349-.349h-.991v3.708h.928c.727 0 1.073-.095 1.423-.368.4-.328.663-.928.663-1.497-.001-.578-.254-1.147-.674-1.494"/></g><g fill="#CCDB29"><path d="M31.136 17.549l.426-.12c.809-.258 1.534-.645 2.156-1.147.633-.512 1.143-1.152 1.515-1.903.376-.758.566-1.636.566-2.611 0-.715-.092-1.363-.261-1.952l1.914 2.92v5.075h3.783v-5.075l4.634-7.073h-4.518l-1.99 3.315-1.877-3.315h-4.667l.982 1.499-.165-.138c-.647-.484-1.413-.839-2.276-1.052-.826-.205-1.707-.309-2.617-.309h-4.256v3.116c-.309-.619-.702-1.169-1.186-1.629-.582-.553-1.28-.984-2.076-1.281-1.567-.582-3.564-.582-5.131.001-.796.296-1.495.727-2.076 1.28-.586.558-1.047 1.239-1.371 2.023l-.146.416c.021-.159.037-.32.037-.489 0-.723-.155-1.329-.465-1.798-.298-.454-.692-.812-1.171-1.063-.443-.234-.947-.392-1.498-.47-.5-.069-1.003-.105-1.5-.105h-4.71v12.148h5.105c.522 0 1.053-.057 1.578-.168.556-.117 1.067-.314 1.517-.586.477-.289.87-.673 1.17-1.143.175-.273.297-.585.376-.926.29.534.651 1.009 1.08 1.417.583.554 1.281.985 2.076 1.281.783.29 1.646.438 2.565.438s1.782-.147 2.566-.438c.795-.296 1.493-.727 2.076-1.281.483-.459.877-1.009 1.186-1.63v3.036h2.6s1.424-.011 1.888-.039c.547-.034 1.301-.042 2.161-.224zm-3.769-.164h-2.457v-11.297h3.831c.876 0 1.722.1 2.515.297.807.2 1.521.529 2.125.979.609.455 1.099 1.052 1.456 1.777.356.723.537 1.607.537 2.626 0 .908-.175 1.724-.521 2.421s-.818 1.29-1.403 1.762c-.58.471-1.259.831-2.015 1.073-.182.059-.365.105-.55.149 0 0-1.409.148-1.884.173-.409.022-1.634.04-1.634.04zm-15.165-1.698c-.264.414-.611.751-1.032 1.006-.409.248-.875.427-1.385.535-.496.105-.998.158-1.49.158h-4.678v-11.298h4.284c.477 0 .962.035 1.441.102.501.069.958.212 1.358.424.415.218.756.529 1.015.921.262.4.395.926.395 1.565 0 .673-.194 1.242-.575 1.692-.209.246-.458.454-.741.623l.274.122c.318.163.596.372.824.623.231.253.412.553.535.889.122.333.184.692.184 1.068 0 .616-.138 1.146-.409 1.57m12.075-1.468c-.302.732-.73 1.364-1.272 1.878-.54.514-1.19.914-1.931 1.189-.736.273-1.549.413-2.417.413s-1.682-.14-2.417-.413c-.741-.275-1.391-.675-1.931-1.189-.543-.515-.97-1.147-1.272-1.877-.3-.729-.454-1.551-.454-2.443 0-.891.153-1.713.454-2.441.302-.73.729-1.362 1.272-1.878.539-.513 1.189-.914 1.93-1.189 1.47-.546 3.361-.546 4.835 0 .742.275 1.392.676 1.931 1.189.542.515.97 1.147 1.272 1.878.3.729.452 1.55.452 2.441s-.151 1.713-.452 2.442m16.531-1.61v4.776h-2.93v-4.776l-4.273-6.521h3.631l2.115 3.736 2.24-3.736h3.491l-4.274 6.521zM8.452 10.323c.144-.033.274-.086.387-.159.103-.066.184-.153.248-.265.061-.107.091-.245.091-.405 0-.165-.033-.298-.098-.399-.069-.105-.157-.186-.267-.244-.124-.066-.27-.116-.433-.146-.173-.033-.345-.049-.508-.049h-1.323v1.721h1.429c.16 0 .32-.018.474-.054m-1.477-1.24h.896c.137 0 .282.014.431.041.12.022.225.056.31.102l.111.101.03.167-.037.195-.107.117c-.071.047-.156.081-.252.103-.123.027-.251.042-.379.042h-1.003v-.868zM32.083 13.063c.178-.379.269-.855.269-1.417 0-.478-.089-.896-.265-1.243-.177-.348-.417-.639-.713-.864-.304-.229-.667-.406-1.081-.521-.423-.119-.874-.179-1.34-.179h-1.111v5.797h.944l.08-.004.482-.025c.36-.028.645-.07.896-.129.429-.102.804-.271 1.116-.504.303-.23.546-.536.723-.911m-.979.568c-.264.199-.586.343-.959.431-.229.055-.493.093-.832.119l-.358.019-.169.009h-.518v-4.945h.685c.428 0 .841.055 1.225.162.362.102.677.254.938.452.249.188.442.422.592.716.145.288.218.642.218 1.051 0 .498-.077.914-.228 1.236-.149.317-.343.561-.594.75"/><path d="M20.876 9.496c-.264-.279-.586-.498-.957-.655-.372-.155-.797-.235-1.262-.235-.464 0-.889.08-1.261.235-.372.157-.694.377-.958.655-.265.278-.471.615-.614 1.001-.144.391-.217.821-.217 1.281 0 .47.073.902.217 1.287.142.383.349.717.614.995.264.279.586.498.958.654.745.312 1.779.312 2.523 0 .371-.155.692-.375.957-.654.265-.278.472-.612.615-.995.144-.384.217-.817.217-1.287 0-.459-.073-.89-.217-1.281-.143-.386-.35-.723-.615-1.001m.216 3.42c-.124.333-.294.611-.524.852-.226.239-.492.419-.813.554-.639.268-1.554.268-2.193 0-.321-.135-.586-.317-.813-.556-.229-.239-.399-.518-.523-.85-.127-.337-.189-.72-.189-1.138 0-.409.064-.79.19-1.133.124-.336.295-.615.523-.856.226-.237.491-.419.812-.554.32-.133.689-.202 1.097-.202.409 0 .778.069 1.097.202.321.135.587.315.815.556.227.239.398.519.522.854.127.343.191.726.191 1.133-.002.418-.066.801-.192 1.138"/><path d="M9.186 13.135c-.169-.071-.354-.12-.549-.147-.208-.029-.403-.042-.583-.042h-1.505v1.872h1.837c.161 0 .328-.018.494-.055.151-.031.289-.089.41-.17.117-.078.21-.176.285-.303.07-.117.104-.266.104-.446 0-.187-.041-.33-.126-.435-.099-.122-.219-.211-.367-.274m.022.937c-.041.07-.091.125-.154.166-.078.051-.164.088-.264.108-.137.03-.272.044-.403.044h-1.412v-1.02h1.079c.16 0 .337.014.525.039.159.022.307.062.44.118.084.036.149.083.202.148l.032.168c0 .1-.016.18-.045.229"/><path d="M75.947 5.573v3.511h3.06v8.637h3.784v-8.637h3.062v-3.511h-9.906zm9.477 3.085h-3.06v8.637h-2.934v-8.637h-3.06v-2.66h9.053v2.66zM61.251 9.573h-3.484v-4h-3.784v.732c-.437-.319-.914-.561-1.429-.717-1.181-.359-2.499-.392-3.694-.039-.576.17-1.097.432-1.545.778-.457.355-.829.801-1.104 1.324-.279.535-.421 1.156-.421 1.844 0 .737.167 1.356.494 1.838.306.449.694.817 1.156 1.09.42.251.882.453 1.368.6.425.128.82.256 1.184.384.305.107.551.233.738.374.062.047.092.088.092.2l-.023.102-.146.132c-.097.056-.206.098-.334.128-.452.103-.859.049-1.264-.146-.265-.127-.479-.303-.656-.536l-.514-.687-2.734 3.006.518.478c.585.537 1.228.934 1.91 1.177.67.239 1.403.36 2.178.36.619 0 1.219-.081 1.778-.24.585-.165 1.11-.425 1.559-.772.35-.271.648-.598.889-.975v1.714h3.784v-4.638h3.484v4.638h3.784v-12.149h-3.784v4zm-9.007-.232l-.208-.26c-.16-.203-.372-.349-.653-.447-.469-.166-.861-.203-1.305-.104-.158.034-.307.089-.443.163-.123.065-.222.148-.297.255-.066.094-.099.208-.099.35 0 .231.078.394.245.512.217.154.5.289.841.401.365.12.758.24 1.179.36.445.128.868.312 1.257.545.404.245.745.576 1.01.984.272.419.409.976.409 1.654 0 .637-.121 1.205-.363 1.688-.24.481-.571.886-.982 1.204-.404.314-.882.549-1.415.7-.522.147-1.08.223-1.661.223-.727 0-1.409-.113-2.035-.334-.629-.224-1.223-.591-1.765-1.089l-.205-.192 2.102-2.312.206.275c.215.286.486.509.813.664.486.234 1.001.303 1.54.177.169-.039.319-.097.452-.173.121-.07.215-.156.286-.263.063-.094.096-.206.096-.341 0-.234-.082-.405-.258-.539-.225-.168-.51-.314-.855-.436-.37-.13-.771-.26-1.201-.391-.453-.137-.883-.324-1.275-.558-.407-.242-.752-.566-1.021-.963-.278-.412-.42-.95-.42-1.6 0-.619.125-1.173.374-1.647.245-.469.576-.866.985-1.184.406-.313.88-.551 1.405-.708 1.115-.329 2.347-.297 3.45.039.605.183 1.154.494 1.636.923l.218.191-2.043 2.233zm1.739-1.272v3.6c-.276-.372-.61-.682-1.001-.917-.421-.255-.88-.453-1.362-.591-.416-.119-.802-.238-1.163-.355-.299-.099-.544-.215-.727-.344-.036-.025-.066-.046-.066-.165l.021-.103.151-.127c.103-.055.215-.096.334-.123.37-.081.678-.049 1.071.089.203.071.354.172.462.311l.519.652 1.761-1.927zm7.693-2.071h2.932v11.297h-2.932v-4.636h-4.337v4.636h-2.932v-11.297h2.932v4.001h4.337v-4.001zM76.177 9.615c-.909-1.471-1.874-2.938-2.806-4.356l-2.121-3.238-2.059 3.163c-.943 1.446-1.92 2.942-2.861 4.431-1.053 1.692-1.153 3.853-.265 5.635.971 1.944 3.023 3.199 5.229 3.199.894 0 1.75-.201 2.541-.595 1.437-.716 2.52-2.033 2.968-3.608.448-1.577.22-3.264-.626-4.631"/></g><g><path d="M34.583 9.267c-.339-.687-.795-1.246-1.372-1.675-.575-.429-1.25-.739-2.022-.931-.773-.192-1.589-.288-2.447-.288h-3.546v10.728s2.387.064 3.351.024c.41-.017 2.149-.193 2.149-.193l-.024-.052.03.045c.213-.047.439-.106.646-.172.728-.232 1.369-.572 1.924-1.022.557-.449.998-1.004 1.327-1.667.328-.662.492-1.427.492-2.295-.001-.982-.17-1.814-.508-2.502zm-2.243 3.917c-.198.419-.467.758-.811 1.015-.344.258-.75.442-1.219.554-.297.07-.635.113-.961.138l.019.027h-1.809v-6.363h1.394c.495 0 .967.063 1.417.188.45.127.842.316 1.174.569.334.252.599.573.796.962.197.39.296.847.296 1.371 0 .607-.099 1.12-.296 1.539zM22.809 7.664c-.514-.49-1.125-.866-1.833-1.129s-1.481-.394-2.319-.394c-.839 0-1.611.131-2.318.394-.707.263-1.318.639-1.833 1.129s-.917 1.083-1.204 1.78c-.288.698-.432 1.475-.432 2.334s.144 1.637.432 2.334c.288.697.689 1.29 1.204 1.78s1.126.866 1.833 1.129c.708.263 1.479.394 2.318.394.838 0 1.612-.131 2.319-.394.707-.263 1.318-.639 1.833-1.129.517-.49.917-1.083 1.206-1.78.288-.697.432-1.475.432-2.334s-.144-1.636-.432-2.334c-.288-.697-.689-1.29-1.206-1.78m-.817 4.114c0 .505-.079.968-.235 1.387-.157.419-.382.782-.674 1.091-.293.308-.644.547-1.053.72-.409.171-.867.257-1.372.257s-.962-.086-1.371-.257c-.409-.172-.76-.412-1.053-.72-.292-.309-.518-.672-.674-1.091-.156-.419-.234-.882-.234-1.387 0-.495.078-.955.234-1.379.157-.424.382-.791.674-1.098.293-.309.644-.548 1.053-.721.409-.171.866-.257 1.371-.257s.963.086 1.372.257c.409.172.76.412 1.053.721.292.308.518.674.674 1.098s.235.884.235 1.379"/><path d="M11.682 12.352c-.207-.229-.455-.415-.742-.561-.289-.146-.609-.246-.963-.296v-.031c.555-.171 1.003-.457 1.341-.855.338-.399.507-.901.507-1.508 0-.586-.116-1.056-.349-1.409-.232-.354-.536-.629-.908-.826-.375-.197-.796-.328-1.266-.394-.468-.067-.935-.099-1.401-.099h-4.001v10.728h4.396c.474 0 .952-.05 1.431-.15.48-.102.912-.269 1.296-.5.385-.232.697-.538.94-.917.242-.379.363-.851.363-1.417 0-.344-.055-.667-.167-.97-.11-.304-.269-.569-.477-.795m-3.296 2.75h-2.12v-2.44h1.788c.192 0 .398.015.62.045.223.031.43.086.622.167s.352.2.478.356c.127.156.189.361.189.613 0 .232-.048.43-.144.591-.096.162-.22.292-.372.394-.152.102-.321.172-.507.213-.187.04-.371.061-.554.061m.948-5.062c-.087.151-.2.272-.342.363-.142.09-.301.157-.478.198-.177.04-.355.06-.537.06h-1.711v-2.288h1.606c.182 0 .368.017.56.053.192.035.364.094.515.175.152.08.275.194.372.34.096.146.144.332.144.553-.001.213-.044.394-.129.546"/><polygon points="38.161,17.101 40.525,17.101 40.525,12.525 44.556,6.373 41.752,6.373 39.342,10.389 37.07,6.373 34.13,6.373 38.161,12.525"/><path d="M52.614 11.358c-.368-.222-.766-.394-1.188-.515-.425-.121-.822-.242-1.19-.363-.367-.121-.674-.268-.916-.44-.242-.171-.363-.418-.363-.743 0-.201.05-.373.15-.515.101-.141.233-.255.396-.34.16-.086.332-.149.515-.19.183-.04.358-.061.53-.061.292 0 .603.058.932.175.327.117.588.295.779.538l1.622-1.773c-.454-.405-.964-.692-1.53-.864-.564-.171-1.152-.258-1.758-.258-.525 0-1.035.073-1.53.221-.494.146-.933.365-1.312.659-.377.292-.682.656-.91 1.091-.226.434-.34.939-.34 1.515 0 .596.123 1.076.372 1.439.247.363.558.657.933.878.372.223.776.4 1.211.532.434.13.839.261 1.213.393.373.132.684.291.933.478.247.187.37.442.37.765 0 .192-.048.359-.144.5-.097.142-.222.257-.38.349-.155.09-.331.159-.53.205-.196.045-.391.067-.582.067-.394 0-.777-.088-1.146-.265-.367-.176-.674-.426-.916-.75l-1.682 1.849c.514.475 1.069.818 1.666 1.03.596.211 1.243.318 1.939.318.556 0 1.086-.07 1.584-.211.5-.142.939-.359 1.318-.652.379-.292.681-.662.902-1.106s.334-.964.334-1.561c0-.626-.121-1.127-.363-1.5s-.549-.671-.919-.895"/><polygon points="61.959,10.283 57.056,10.283 57.056,6.282 54.691,6.282 54.691,17.012 57.056,17.012 57.056,12.374 61.959,12.374 61.959,17.012 64.325,17.012 64.325,6.282 61.959,6.282"/><polygon points="76.655,6.282 76.655,8.375 79.716,8.375 79.716,17.012 82.08,17.012 82.08,8.375 85.141,8.375 85.141,6.282"/></g><path fill="#fff" d="M71.353 4.711l.423.643c1.024 1.559 2.084 3.168 3.076 4.771.226.368.391.771.489 1.188.034.111.057.229.065.349l.005.113c0 .849-.688 1.536-1.538 1.536-.85 0-1.537-.687-1.537-1.534v-.003c.002-.178-.548-4.333-.983-7.063"/></svg>