<?xml version="1.0" encoding="utf-8"?>
<!-- Generator: Adobe Illustrator 18.1.1, SVG Export Plug-In . SVG Version: 6.00 Build 0)  -->
<svg version="1.1" id="Layer_1" xmlns="http://www.w3.org/2000/svg" xmlns:xlink="http://www.w3.org/1999/xlink" x="0px" y="0px"
	 viewBox="0 0 174 116.2" enable-background="new 0 0 174 116.2" xml:space="preserve">
<g>
	<path fill="none" d="M130,29.5c0-4-0.7-7.5-2.1-10.4c-1.4-2.9-3.3-5.2-5.7-7c-2.4-1.8-5.2-3.1-8.4-3.9c-3.1-0.8-6.5-1.2-9.9-1.2
		H88.8v44.5h9.7l7.2-10.9l2.3,3.4l-1.5-2.3c1.3-0.1,2.5-0.3,3.7-0.5c1.9-0.4,3.5-1.2,4.8-2.2c1.4-1,2.4-2.3,3.2-4
		c0.8-1.7,1.2-3.7,1.2-6.1c0-2.1-0.4-3.9-1.2-5.4c-0.8-1.5-1.8-2.8-3.1-3.8c-1.3-1-2.9-1.7-4.6-2.2c-1.8-0.5-3.6-0.7-5.6-0.7h-5.5
		v25.1h4.8c0.3,0,0.5,0,0.7,0l-5.6,8.6h-9.3V8.2h14c3.4,0,6.6,0.4,9.6,1.1c3,0.8,5.7,2,8,3.7c2.3,1.7,4.1,3.9,5.4,6.6
		c1.3,2.7,2,6,2,9.9c0,3.4-0.6,6.4-1.9,9c-1.3,2.6-3,4.8-5.2,6.6c-2.2,1.8-4.7,3.1-7.6,4c-0.8,0.3-1.6,0.5-2.5,0.7l0.7,1
		c0.7-0.2,1.5-0.4,2.2-0.6c3-1,5.7-2.4,7.9-4.2c2.3-1.9,4.2-4.2,5.5-6.9C129.4,36.3,130,33.1,130,29.5z M104.4,40.8
		c-0.1,0-0.2,0-0.3,0h-3.7V17.9h4.4c1.8,0,3.6,0.2,5.3,0.7c1.6,0.5,3.1,1.1,4.3,2.1c1.2,0.9,2.1,2,2.8,3.4c0.7,1.4,1,3,1,4.9
		c0,2.2-0.4,4.1-1.1,5.6c-0.7,1.5-1.7,2.7-2.9,3.6c-1.2,0.9-2.7,1.6-4.4,2c-1,0.2-2.1,0.4-3.5,0.5L104.4,40.8z"/>
	<path fill="none" d="M81.3,12.5c-2.1-2-4.7-3.6-7.6-4.7c-5.8-2.2-13.3-2.2-19.1,0c-2.9,1.1-5.5,2.7-7.6,4.7c-2.1,2-3.8,4.5-5,7.4
		c-1.2,2.9-1.8,6.1-1.8,9.6c0,3.5,0.6,6.8,1.8,9.6c1.2,2.9,2.9,5.4,5,7.4c2.1,2,4.7,3.6,7.6,4.7c2.9,1.1,6.1,1.6,9.5,1.6
		c3.4,0,6.6-0.5,9.5-1.6c2.9-1.1,5.5-2.7,7.6-4.7c2.1-2,3.8-4.5,5-7.4c1.2-2.9,1.8-6.1,1.8-9.6c0-3.5-0.6-6.8-1.8-9.6
		C85.1,17,83.4,14.5,81.3,12.5z M85.3,38.7c-1.1,2.7-2.7,5.1-4.7,7c-2,1.9-4.4,3.4-7.2,4.5c-2.8,1-5.8,1.6-9.1,1.6
		c-3.3,0-6.4-0.5-9.1-1.6c-2.8-1-5.2-2.5-7.2-4.5c-2-1.9-3.6-4.3-4.7-7c-1.1-2.7-1.7-5.8-1.7-9.2c0-3.4,0.6-6.5,1.7-9.2
		c1.1-2.7,2.7-5.1,4.7-7c2-1.9,4.4-3.4,7.2-4.5c2.8-1,5.8-1.6,9.1-1.6c3.3,0,6.4,0.5,9.1,1.6c2.8,1,5.2,2.5,7.2,4.5
		c2,1.9,3.6,4.3,4.7,7c1.1,2.7,1.7,5.8,1.7,9.2C87,32.9,86.4,36,85.3,38.7z"/>
	<path fill="none" d="M73.7,19.7c-1.2-1.2-2.5-2.2-4.2-2.8c-1.6-0.7-3.4-1-5.4-1c-2,0-3.8,0.3-5.4,1c-1.6,0.7-3,1.6-4.2,2.8
		c-1.2,1.2-2,2.7-2.7,4.3c-0.6,1.7-0.9,3.5-0.9,5.4c0,2,0.3,3.8,0.9,5.5c0.6,1.7,1.5,3.1,2.7,4.3c1.2,1.2,2.5,2.2,4.2,2.8
		c1.6,0.7,3.4,1,5.4,1c2,0,3.8-0.3,5.4-1c1.6-0.7,3-1.6,4.2-2.8c1.2-1.2,2-2.6,2.7-4.3c0.6-1.7,0.9-3.5,0.9-5.5c0-2-0.3-3.8-0.9-5.4
		C75.8,22.4,74.9,21,73.7,19.7z M75.3,34.6c-0.6,1.5-1.4,2.8-2.4,3.9c-1,1.1-2.3,2-3.8,2.6c-2.9,1.2-7,1.2-9.9,0
		c-1.5-0.6-2.7-1.5-3.8-2.6c-1-1.1-1.9-2.4-2.4-3.9c-0.6-1.5-0.9-3.2-0.9-5.1c0-1.8,0.3-3.5,0.9-5c0.6-1.5,1.4-2.8,2.4-3.9
		c1-1.1,2.3-2,3.8-2.6c1.5-0.6,3.1-0.9,5-0.9c1.8,0,3.5,0.3,5,0.9c1.5,0.6,2.7,1.5,3.8,2.6c1,1.1,1.9,2.4,2.4,3.9
		c0.6,1.5,0.9,3.2,0.9,5C76.2,31.4,75.9,33.1,75.3,34.6z"/>
	<path fill="none" d="M29.2,51c2-0.4,3.8-1.1,5.5-2.1c1.7-1,3-2.3,4.1-4c1.1-1.7,1.6-3.8,1.6-6.2c0-1.5-0.2-2.9-0.7-4.2
		c-0.5-1.3-1.2-2.5-2.1-3.5c-0.9-1-2-1.8-3.2-2.5c-0.3-0.2-0.7-0.3-1.1-0.5c1.1-0.7,2.1-1.5,2.9-2.5c1.5-1.8,2.3-4,2.3-6.7
		c0-2.5-0.5-4.6-1.6-6.2c-1-1.5-2.4-2.8-4-3.6c-1.6-0.8-3.4-1.4-5.4-1.7c-1.9-0.3-3.8-0.4-5.7-0.4H4.9v44.5h18.4
		C25.3,51.6,27.2,51.4,29.2,51z M6,50.5V8.2h15.8c1.8,0,3.7,0.1,5.5,0.4c1.9,0.3,3.5,0.8,5,1.6c1.5,0.8,2.7,1.9,3.6,3.3
		c0.9,1.4,1.4,3.2,1.4,5.6c0,2.4-0.7,4.4-2,5.9c-1.3,1.6-3.1,2.7-5.3,3.4v0.1c1.4,0.2,2.7,0.6,3.8,1.2c1.1,0.6,2.1,1.3,2.9,2.2
		c0.8,0.9,1.4,1.9,1.9,3.1c0.4,1.2,0.7,2.5,0.7,3.8c0,2.2-0.5,4.1-1.4,5.6c-1,1.5-2.2,2.7-3.7,3.6c-1.5,0.9-3.2,1.6-5.1,2
		c-1.9,0.4-3.8,0.6-5.6,0.6H6z"/>
	<path fill="none" d="M24.2,24.9c0.7-0.2,1.3-0.4,1.9-0.8c0.6-0.4,1-0.8,1.3-1.4c0.3-0.6,0.5-1.3,0.5-2.2c0-0.9-0.2-1.6-0.6-2.2
		c-0.4-0.6-0.9-1-1.5-1.3c-0.6-0.3-1.3-0.5-2-0.7c-0.8-0.1-1.5-0.2-2.2-0.2h-6.3v9h6.7C22.8,25.1,23.5,25,24.2,24.9z M16.4,17.2h5.2
		c0.6,0,1.3,0.1,2,0.2c0.6,0.1,1.2,0.3,1.7,0.6c0.4,0.2,0.8,0.5,1.1,1c0.3,0.4,0.4,0.9,0.4,1.6c0,0.6-0.1,1.2-0.4,1.6
		c-0.3,0.4-0.6,0.8-1,1c-0.4,0.3-1,0.5-1.5,0.6c-0.6,0.1-1.2,0.2-1.9,0.2h-5.6V17.2z"/>
	<path fill="none" d="M29.9,37.7c0-1-0.2-1.8-0.7-2.4c-0.5-0.6-1.1-1.1-1.9-1.4c-0.8-0.3-1.6-0.5-2.4-0.7c-0.9-0.1-1.7-0.2-2.4-0.2
		h-7v9.6h8.4c0.7,0,1.4-0.1,2.2-0.2c0.7-0.2,1.4-0.4,2-0.8c0.6-0.4,1.1-0.9,1.5-1.6C29.7,39.3,29.9,38.6,29.9,37.7z M28.4,39.4
		c-0.3,0.5-0.7,0.9-1.1,1.2c-0.5,0.3-1,0.5-1.6,0.7c-0.7,0.1-1.3,0.2-1.9,0.2h-7.2v-7.4h5.9c0.7,0,1.5,0.1,2.3,0.2
		c0.8,0.1,1.5,0.3,2.2,0.6c0.6,0.2,1.1,0.6,1.4,1.1c0.3,0.4,0.5,1,0.5,1.7C28.8,38.4,28.6,38.9,28.4,39.4z"/>
	<path fill="none" d="M139.9,51.6h11.6V32.8l16.8-25.7h-13.8l-8.8,14.7l-8.3-14.7h-14.3l16.8,25.7V51.6z M125.1,8.2h11.6l9,15.8
		l9.5-15.8h11.1l-15.9,24.3v18H141v-18L125.1,8.2z"/>
	<path fill="none" d="M28.6,77.5c-0.4-0.5-1-0.9-1.8-1.2c-1.6-0.5-2.8-0.7-4.2-0.4c-0.5,0.1-0.9,0.3-1.3,0.5
		c-0.3,0.1-0.4,0.3-0.6,0.5c-0.1,0.1-0.1,0.3-0.1,0.4c0,0.5,0.1,0.5,0.3,0.6c0.7,0.5,1.7,1,2.9,1.4c1.4,0.5,2.9,0.9,4.6,1.4
		c1.9,0.5,3.7,1.3,5.4,2.3c1.5,0.9,2.9,2.2,3.9,3.6V72.4L30.6,80L28.6,77.5z"/>
	<g>
		<path fill="none" d="M125.8,64.3v10.5h12.1v34h11.6v-34h12.1V64.3H125.8z M160.4,73.6h-12.1v34H139v-34h-12.1v-8.2h33.5V73.6z"/>
		<path fill="none" d="M20.4,74.9c0.5-0.3,1.1-0.5,1.7-0.6c1.7-0.4,3.3-0.2,5.2,0.4c1.1,0.4,1.9,1,2.6,1.8l0.8,1l8-8.8l-0.8-0.8
			c-1.9-1.7-4.1-2.9-6.4-3.6c-4.4-1.3-9.2-1.4-13.6-0.2c-2.1,0.6-3.9,1.6-5.5,2.8c-1.6,1.3-2.9,2.8-3.9,4.7c-1,1.9-1.5,4.1-1.5,6.5
			c0,2.6,0.6,4.7,1.7,6.3c1.1,1.6,2.4,2.8,4,3.8c1.5,0.9,3.2,1.7,5,2.2c1.7,0.5,3.3,1,4.7,1.5c1.4,0.5,2.5,1.1,3.4,1.7
			c0.7,0.5,1,1.2,1,2.1c0,0.5-0.1,1-0.4,1.3c-0.3,0.4-0.7,0.8-1.1,1c-0.5,0.3-1.1,0.5-1.8,0.7c-2.1,0.5-4.2,0.2-6.1-0.7
			c-1.3-0.6-2.4-1.5-3.2-2.6l-0.8-1.1l-8.3,9.1l0.8,0.8c2.1,2,4.5,3.4,7,4.3c2.5,0.9,5.2,1.3,8,1.3c2.3,0,4.5-0.3,6.5-0.9
			c2.1-0.6,4-1.5,5.6-2.8c1.6-1.3,2.9-2.8,3.9-4.7c1-1.9,1.4-4.1,1.4-6.7c0-2.7-0.5-4.9-1.6-6.5c-1-1.6-2.4-2.9-4-3.9
			c-1.5-0.9-3.2-1.6-5-2.1c-1.7-0.5-3.2-0.9-4.6-1.4c-1.3-0.4-2.5-1-3.3-1.6c-0.7-0.5-1-1.1-1-2c0-0.6,0.1-1,0.4-1.4
			C19.6,75.5,19.9,75.2,20.4,74.9z M18.4,75.3c-0.4,0.6-0.6,1.2-0.6,2c0,1.3,0.5,2.3,1.4,2.9c1,0.7,2.2,1.3,3.6,1.7
			c1.5,0.5,3,1,4.7,1.4c1.7,0.5,3.2,1.2,4.7,2c1.5,0.9,2.7,2.1,3.6,3.5c1,1.5,1.4,3.4,1.4,5.9c0,2.4-0.4,4.4-1.3,6.2
			c-0.9,1.8-2.1,3.2-3.6,4.4c-1.5,1.2-3.2,2-5.2,2.6c-2,0.6-4.1,0.8-6.2,0.8c-2.7,0-5.3-0.4-7.6-1.3c-2.3-0.8-4.5-2.2-6.6-4.1
			l6.6-7.3c1,1.3,2.2,2.3,3.6,3c1.5,0.7,3,1,4.5,1c0.8,0,1.5-0.1,2.3-0.3c0.8-0.2,1.5-0.4,2.1-0.8c0.6-0.4,1.1-0.8,1.5-1.4
			c0.4-0.6,0.6-1.2,0.6-2c0-1.3-0.5-2.3-1.5-3c-1-0.7-2.2-1.4-3.7-1.9c-1.5-0.5-3.1-1-4.8-1.6c-1.7-0.5-3.3-1.2-4.8-2.1
			c-1.5-0.9-2.7-2-3.7-3.5c-1-1.4-1.5-3.3-1.5-5.7c0-2.3,0.4-4.3,1.3-6c0.9-1.7,2.1-3.1,3.6-4.3c1.5-1.2,3.2-2,5.2-2.6
			c2-0.6,4-0.9,6-0.9c2.4,0,4.7,0.3,6.9,1c2.2,0.7,4.2,1.8,6,3.4l-6.4,7c-0.8-1-1.8-1.7-3.1-2.1c-1.3-0.5-2.5-0.7-3.7-0.7
			c-0.7,0-1.4,0.1-2.1,0.2c-0.7,0.2-1.4,0.4-2,0.7C19.3,74.3,18.7,74.7,18.4,75.3z"/>
		<path fill="none" d="M67.9,80.1H50.8V64.3H39.3v44.5h11.6V90.5h17.1v18.3h11.6V64.3H67.9V80.1z M69,65.4h9.3v42.3H69V89.4H49.7
			v18.3h-9.3V65.4h9.3v15.8H69V65.4z"/>
	</g>
	<g>
		<path d="M125.1,78.5c-3.6-5.8-7.4-11.6-11.1-17.2l-8.4-12.8l-8.1,12.5c-3.7,5.7-7.6,11.6-11.3,17.5c-4.1,6.7-4.5,15.2-1,22.2
			c3.8,7.7,11.9,12.6,20.6,12.6c3.5,0,6.9-0.8,10-2.3c5.7-2.8,9.9-8,11.7-14.2C129.3,90.6,128.4,83.9,125.1,78.5z"/>
	</g>
	<g>
		<g>
			<path fill="#FFFFFF" d="M32.2,85.4c-1.5-0.9-3-1.6-4.7-2c-1.7-0.5-3.2-1-4.7-1.4c-1.5-0.5-2.7-1.1-3.6-1.7
				c-1-0.7-1.4-1.7-1.4-2.9c0-0.8,0.2-1.5,0.6-2c0.4-0.6,0.9-1,1.6-1.3c0.6-0.3,1.3-0.6,2-0.7c0.7-0.2,1.4-0.2,2.1-0.2
				c1.2,0,2.4,0.2,3.7,0.7c1.3,0.5,2.3,1.2,3.1,2.1l6.4-7c-1.8-1.6-3.8-2.7-6-3.4c-2.2-0.7-4.5-1-6.9-1c-2.1,0-4.1,0.3-6,0.9
				c-2,0.6-3.7,1.4-5.2,2.6c-1.5,1.2-2.7,2.6-3.6,4.3c-0.9,1.7-1.3,3.7-1.3,6c0,2.4,0.5,4.2,1.5,5.7c1,1.4,2.2,2.6,3.7,3.5
				c1.5,0.9,3.1,1.6,4.8,2.1c1.7,0.5,3.3,1,4.8,1.6c1.5,0.5,2.7,1.1,3.7,1.9c1,0.7,1.5,1.7,1.5,3c0,0.8-0.2,1.4-0.6,2
				c-0.4,0.6-0.9,1-1.5,1.4c-0.6,0.4-1.3,0.6-2.1,0.8c-0.8,0.2-1.5,0.3-2.3,0.3c-1.6,0-3.1-0.3-4.5-1c-1.5-0.7-2.7-1.7-3.6-3
				l-6.6,7.3c2,1.9,4.2,3.2,6.6,4.1c2.3,0.8,4.9,1.3,7.6,1.3c2.2,0,4.3-0.3,6.2-0.8c2-0.6,3.7-1.4,5.2-2.6c1.5-1.2,2.7-2.6,3.6-4.4
				c0.9-1.8,1.3-3.8,1.3-6.2c0-2.5-0.5-4.4-1.4-5.9C34.8,87.5,33.6,86.3,32.2,85.4z"/>
			<polygon fill="#FFFFFF" points="69,81.2 49.7,81.2 49.7,65.4 40.4,65.4 40.4,107.7 49.7,107.7 49.7,89.4 69,89.4 69,107.7 
				78.3,107.7 78.3,65.4 69,65.4 			"/>
			<polygon fill="#FFFFFF" points="126.9,65.4 126.9,73.6 139,73.6 139,107.7 148.3,107.7 148.3,73.6 160.4,73.6 160.4,65.4 			"/>
		</g>
		<path fill="#FFFFFF" d="M128.9,29.5c0-3.9-0.7-7.1-2-9.9c-1.3-2.7-3.1-4.9-5.4-6.6c-2.3-1.7-4.9-2.9-8-3.7c-3-0.8-6.3-1.1-9.6-1.1
			h-14v42.3h9.3l5.7-8.6c-0.2,0-0.6,0-0.8,0h-4.8V16.8h5.5c1.9,0,3.8,0.2,5.6,0.7c1.8,0.5,3.3,1.2,4.6,2.2c1.3,1,2.4,2.3,3.1,3.8
			c0.8,1.5,1.2,3.3,1.2,5.4c0,2.4-0.4,4.4-1.2,6.1c-0.8,1.7-1.8,3-3.2,4c-1.4,1-3,1.7-4.8,2.2c-1.2,0.3-2.5,0.4-3.8,0.5l5.3,8
			c0.8-0.2,1.7-0.4,2.5-0.7c2.9-0.9,5.4-2.3,7.6-4c2.2-1.8,3.9-4,5.2-6.6C128.3,35.9,128.9,32.9,128.9,29.5z"/>
		<path fill="#FFFFFF" d="M80.5,13.3c-2-1.9-4.4-3.4-7.2-4.5c-2.8-1-5.8-1.6-9.1-1.6c-3.3,0-6.4,0.5-9.1,1.6c-2.8,1-5.2,2.5-7.2,4.5
			c-2,1.9-3.6,4.3-4.7,7c-1.1,2.7-1.7,5.8-1.7,9.2c0,3.4,0.6,6.5,1.7,9.2c1.1,2.7,2.7,5.1,4.7,7c2,1.9,4.4,3.4,7.2,4.5
			c2.8,1,5.8,1.6,9.1,1.6c3.3,0,6.4-0.5,9.1-1.6c2.8-1,5.2-2.5,7.2-4.5c2-1.9,3.6-4.3,4.7-7c1.1-2.7,1.7-5.8,1.7-9.2
			c0-3.4-0.6-6.5-1.7-9.2C84.1,17.6,82.6,15.2,80.5,13.3z M77.3,29.5c0,2-0.3,3.8-0.9,5.5c-0.6,1.7-1.5,3.1-2.7,4.3
			c-1.2,1.2-2.5,2.2-4.2,2.8c-1.6,0.7-3.4,1-5.4,1c-2,0-3.8-0.3-5.4-1c-1.6-0.7-3-1.6-4.2-2.8c-1.2-1.2-2-2.6-2.7-4.3
			c-0.6-1.7-0.9-3.5-0.9-5.5c0-2,0.3-3.8,0.9-5.4c0.6-1.7,1.5-3.1,2.7-4.3c1.2-1.2,2.5-2.2,4.2-2.8c1.6-0.7,3.4-1,5.4-1
			c2,0,3.8,0.3,5.4,1c1.6,0.7,3,1.6,4.2,2.8c1.2,1.2,2,2.7,2.7,4.3C77,25.7,77.3,27.6,77.3,29.5z"/>
		<path fill="#FFFFFF" d="M36.7,31.8c-0.8-0.9-1.8-1.6-2.9-2.2c-1.1-0.6-2.4-1-3.8-1.2v-0.1c2.2-0.7,4-1.8,5.3-3.4
			c1.3-1.6,2-3.6,2-5.9c0-2.3-0.5-4.2-1.4-5.6c-0.9-1.4-2.1-2.5-3.6-3.3c-1.5-0.8-3.1-1.3-5-1.6c-1.9-0.3-3.7-0.4-5.5-0.4H6v42.3
			h17.3c1.9,0,3.8-0.2,5.6-0.6c1.9-0.4,3.6-1.1,5.1-2c1.5-0.9,2.7-2.1,3.7-3.6c1-1.5,1.4-3.4,1.4-5.6c0-1.4-0.2-2.6-0.7-3.8
			C38.1,33.7,37.5,32.7,36.7,31.8z M23.7,42.6h-8.4V33h7c0.8,0,1.6,0.1,2.4,0.2c0.9,0.1,1.7,0.3,2.4,0.7c0.8,0.3,1.4,0.8,1.9,1.4
			c0.5,0.6,0.7,1.4,0.7,2.4c0,0.9-0.2,1.7-0.6,2.3c-0.4,0.6-0.9,1.2-1.5,1.6c-0.6,0.4-1.3,0.7-2,0.8C25.1,42.5,24.4,42.6,23.7,42.6z
			 M27.4,22.7c-0.3,0.6-0.8,1.1-1.3,1.4c-0.6,0.4-1.2,0.6-1.9,0.8c-0.7,0.2-1.4,0.2-2.1,0.2h-6.7v-9h6.3c0.7,0,1.5,0.1,2.2,0.2
			c0.8,0.1,1.4,0.4,2,0.7c0.6,0.3,1.1,0.8,1.5,1.3c0.4,0.6,0.6,1.3,0.6,2.2C27.9,21.3,27.7,22.1,27.4,22.7z"/>
		<polygon fill="#FFFFFF" points="141,50.5 150.4,50.5 150.4,32.5 166.2,8.2 155.2,8.2 145.7,24 136.7,8.2 125.1,8.2 141,32.5 		"/>
		<path fill="#7AC943" d="M106,59.2c0.6,0.9,1.1,1.7,1.7,2.5c4,6.1,8.2,12.5,12.1,18.8c0.9,1.4,1.5,3,1.9,4.7
			c0.1,0.4,0.2,0.9,0.3,1.4c0,0.1,0,0.3,0,0.4c0,3.3-2.7,6.1-6.1,6.1c-3.3,0-6.1-2.7-6.1-6l0,0c0,0,0,0,0,0
			C109.9,86.3,107.8,70,106,59.2z"/>
	</g>
</g>
</svg>
