<?xml version="1.0" encoding="utf-8"?>
<!-- Generator: Adobe Illustrator 18.1.1, SVG Export Plug-In . SVG Version: 6.00 Build 0)  -->
<svg version="1.1" id="Layer_1" xmlns="http://www.w3.org/2000/svg" xmlns:xlink="http://www.w3.org/1999/xlink" x="0px" y="0px"
	 viewBox="0 0 612 792" enable-background="new 0 0 612 792" xml:space="preserve">
<g>
	<path fill="none" d="M457.2,295.4c0-14.1-2.5-26.3-7.4-36.5s-11.6-18.3-20-24.7c-8.4-6.3-18.2-10.9-29.5-13.7
		c-10.9-2.8-22.9-4.2-34.9-4.2h-53.1v156.6h34.2l25.3-38.3l8.1,12l-5.3-8.1c4.6-0.4,8.8-1.1,13-1.8c6.6-1.4,12.3-4.2,16.8-7.7
		c4.9-3.6,8.4-8.1,11.3-14.1c2.8-5.9,4.2-13,4.2-21.5c0-7.4-1.4-13.8-4.2-19c-2.8-5.3-6.3-9.8-10.9-13.4c-4.6-3.6-10.2-5.9-16.1-7.7
		c-6.3-1.8-12.7-2.5-19.7-2.5h-19.3V339h16.8c1.1,0,1.8,0,2.5,0l-19.8,30.3h-32.7V220.5h49.2c12,0,23.2,1.4,33.8,3.9
		c10.6,2.8,20,7,28.1,13c8.1,5.9,14.5,13.8,19,23.2c4.6,9.4,7,21.1,7,34.9c0,12-2.1,22.5-6.6,31.7c-4.6,9.1-10.6,16.8-18.3,23.2
		c-7.7,6.3-16.5,10.9-26.7,14.1c-2.8,1.1-5.6,1.8-8.8,2.5l2.5,3.6c2.5-0.7,5.3-1.4,7.7-2.1c10.6-3.6,20-8.4,27.8-14.8
		c8.1-6.6,14.8-14.8,19.3-24.3C455.1,319.3,457.2,308.1,457.2,295.4z M367.2,335.2c-0.4,0-0.7,0-1.1,0h-13v-80.6h15.5
		c6.3,0,12.7,0.7,18.6,2.5c5.6,1.8,10.9,3.9,15.1,7.4c4.2,3.2,7.4,7,9.8,12c2.5,4.9,3.6,10.6,3.6,17.2c0,7.7-1.4,14.4-3.9,19.7
		c-2.5,5.3-6,9.5-10.2,12.7s-9.5,5.6-15.5,7c-3.6,0.7-7.4,1.4-12.3,1.8L367.2,335.2z"/>
	<path fill="none" d="M286,235.6c-7.4-7-16.5-12.7-26.7-16.5c-20.4-7.7-46.8-7.7-67.1,0c-10.2,3.9-19.3,9.5-26.7,16.5
		s-13.4,15.8-17.6,26s-6.3,21.5-6.3,33.8c0,12.3,2.1,24,6.3,33.8c4.2,10.2,10.2,19,17.6,26c7.4,7,16.5,12.7,26.7,16.5
		c10.2,3.9,21.5,5.6,33.4,5.6s23.2-1.8,33.4-5.6c10.2-3.9,19.3-9.5,26.7-16.5c7.4-7,13.4-15.8,17.6-26c4.2-10.2,6.3-21.5,6.3-33.8
		c0-12.3-2.1-24-6.3-33.8C299.4,251.4,293.3,242.6,286,235.6z M300,327.8c-3.9,9.5-9.5,17.9-16.5,24.6c-7,6.6-15.5,12-25.3,15.8
		c-9.8,3.6-20.4,5.6-32,5.6s-22.5-1.8-32-5.6c-9.8-3.6-18.3-8.8-25.3-15.8c-7-6.6-12.7-15.1-16.5-24.6c-3.9-9.5-5.9-20.4-5.9-32.4
		s2.1-22.9,5.9-32.4c3.9-9.5,9.5-17.9,16.5-24.7c7-6.6,15.5-12,25.3-15.8c9.8-3.6,20.4-5.6,32-5.6s22.5,1.8,32,5.6
		c9.8,3.6,18.3,8.8,25.3,15.8c7,6.6,12.7,15.1,16.5,24.7c3.9,9.5,6,20.4,6,32.4S303.9,318.3,300,327.8z"/>
	<path fill="none" d="M259.2,260.9c-4.2-4.2-8.8-7.7-14.8-9.8c-5.6-2.5-12-3.6-19-3.6c-7,0-13.4,1.1-19,3.6
		c-5.6,2.5-10.6,5.6-14.8,9.8c-4.2,4.2-7,9.5-9.5,15.1c-2.1,6-3.2,12.3-3.2,19c0,7,1.1,13.4,3.2,19.3c2.1,6,5.3,10.9,9.5,15.1
		s8.8,7.7,14.8,9.8c5.6,2.5,12,3.6,19,3.6c7,0,13.4-1.1,19-3.6c5.6-2.5,10.6-5.6,14.8-9.8c4.2-4.2,7-9.1,9.5-15.1
		c2.1-5.9,3.2-12.3,3.2-19.3s-1.1-13.4-3.2-19C266.6,270.4,263.4,265.5,259.2,260.9z M264.8,313.3c-2.1,5.3-4.9,9.8-8.4,13.8
		c-3.6,3.9-8.1,7-13.4,9.1c-10.2,4.2-24.6,4.2-34.9,0c-5.3-2.1-9.5-5.3-13.4-9.1c-3.6-3.9-6.6-8.4-8.4-13.8
		c-2.1-5.3-3.2-11.3-3.2-17.9c0-6.3,1.1-12.3,3.2-17.6c2.1-5.3,4.9-9.8,8.4-13.8c3.5-3.9,8.1-7,13.4-9.1c5.3-2.1,10.9-3.2,17.6-3.2
		c6.3,0,12.3,1.1,17.6,3.2c5.3,2.1,9.5,5.3,13.4,9.1c3.6,3.9,6.6,8.4,8.4,13.8c2.1,5.3,3.2,11.3,3.2,17.6
		C268,302.1,267,308.1,264.8,313.3z"/>
	<path fill="none" d="M102.7,371c7-1.4,13.4-3.9,19.3-7.4c5.9-3.6,10.6-8.1,14.4-14.1c3.9-5.9,5.6-13.4,5.6-21.8
		c0-5.3-0.7-10.2-2.5-14.8c-1.8-4.6-4.2-8.8-7.4-12.3c-3.2-3.6-7-6.3-11.3-8.8c-1.1-0.7-2.5-1.1-3.9-1.8c3.9-2.5,7.4-5.3,10.2-8.8
		c5.3-6.3,8.1-14.1,8.1-23.6c0-8.8-1.8-16.1-5.6-21.8c-3.6-5.3-8.4-9.8-14.1-12.7c-5.6-2.8-12-4.9-19-5.9c-6.6-1.1-13.4-1.4-20-1.4
		H17.2v156.6H82C89,373.1,95.7,372.4,102.7,371z M21.1,369.3V220.5h55.6c6.3,0,13,0.4,19.3,1.4c6.6,1.1,12.3,2.8,17.6,5.6
		c5.3,2.8,9.5,6.6,12.7,11.6c3.2,4.9,4.9,11.3,4.9,19.7s-2.5,15.5-7,20.8c-4.6,5.6-10.9,9.5-18.6,12v0.4c4.9,0.7,9.5,2.1,13.4,4.2
		c3.9,2.1,7.4,4.6,10.2,7.7s4.9,6.6,6.6,10.9c1.4,4.2,2.5,8.8,2.5,13.4c0,7.7-1.8,14.5-4.9,19.7c-3.6,5.3-7.7,9.5-13,12.7
		s-11.3,5.6-17.9,7c-6.6,1.4-13.4,2.1-19.7,2.1H21.1V369.3z"/>
	<path fill="none" d="M85.2,279.2c2.5-0.7,4.6-1.4,6.6-2.8c2.1-1.4,3.6-2.8,4.6-4.9c1.1-2.1,1.8-4.6,1.8-7.7s-0.7-5.6-2.1-7.7
		c-1.4-2.1-3.2-3.6-5.3-4.6c-2.1-1.1-4.6-1.8-7-2.5c-2.8-0.4-5.3-0.7-7.7-0.7H53.8V280h23.6C80.2,279.9,82.7,279.5,85.2,279.2z
		 M57.6,252.1H76c2.1,0,4.6,0.4,7,0.7c2.1,0.4,4.2,1.1,5.9,2.1c1.4,0.7,2.8,1.8,3.9,3.6c1.1,1.4,1.4,3.2,1.4,5.6
		c0,2.1-0.4,4.2-1.4,5.6c-1.1,1.4-2.1,2.8-3.6,3.6c-1.4,1.1-3.6,1.8-5.3,2.1c-2.1,0.4-4.2,0.7-6.6,0.7H57.6V252.1z"/>
	<path fill="none" d="M105.2,324.2c0-3.6-0.7-6.3-2.5-8.4s-3.9-3.9-6.6-4.9c-2.8-1.1-5.6-1.8-8.4-2.5c-3.2-0.4-5.9-0.7-8.4-0.7H54.6
		v33.8h29.5c2.5,0,4.9-0.4,7.7-0.7c2.5-0.7,4.9-1.4,7-2.8c2.1-1.4,3.9-3.2,5.3-5.6C104.5,329.9,105.2,327.4,105.2,324.2z
		 M99.9,330.2c-1.1,1.8-2.5,3.2-3.9,4.2c-1.8,1.1-3.6,1.8-5.6,2.5c-2.5,0.4-4.6,0.7-6.6,0.7H58.4v-26h20.8c2.5,0,5.3,0.4,8.1,0.7
		c2.8,0.4,5.3,1.1,7.7,2.1c2.1,0.7,3.9,2.1,4.9,3.9c1.1,1.4,1.8,3.6,1.8,6C101.3,326.7,100.6,328.5,99.9,330.2z"/>
	<path fill="none" d="M492.1,373.1h40.8V307l59.1-90.4h-48.5l-31,51.7l-29.2-51.7H433l59.1,90.4L492.1,373.1L492.1,373.1z
		 M440,220.5h40.8l31.7,55.6l33.4-55.6H585L529,306v63.3h-33.1V306L440,220.5z"/>
	<path fill="none" d="M100.6,464.2c-1.4-1.8-3.6-3.2-6.3-4.2c-5.6-1.8-9.8-2.5-14.8-1.4c-1.8,0.4-3.2,1.1-4.6,1.8
		c-1.1,0.4-1.4,1.1-2.1,1.8c-0.4,0.4-0.4,1.1-0.4,1.4c0,1.8,0.4,1.8,1.1,2.1c2.5,1.8,5.9,3.6,10.2,4.9c4.9,1.8,10.2,3.2,16.2,4.9
		c6.6,1.8,13,4.6,19,8.1c5.3,3.2,10.2,7.7,13.8,12.7v-49.9l-25,26.7L100.6,464.2z"/>
	<g>
		<path fill="none" d="M442.5,417.8v36.9H485v119.6h40.8V454.7h42.6v-36.9H442.5z M564.2,450.6h-42.6v119.6h-32.7V450.6h-42.6v-28.8
			h117.8L564.2,450.6L564.2,450.6z"/>
		<path fill="none" d="M71.8,455.1c1.8-1.1,3.9-1.8,5.9-2.1c5.9-1.4,11.6-0.7,18.3,1.4c3.9,1.4,6.6,3.6,9.1,6.3l2.8,3.6l28.1-31
			l-2.8-2.8c-6.6-6-14.5-10.2-22.5-12.7c-15.5-4.6-32.4-4.9-47.8-0.7c-7.4,2.1-13.8,5.6-19.3,9.8c-5.6,4.6-10.2,9.8-13.8,16.5
			c-3.6,6.6-5.3,14.4-5.3,22.9c0,9.1,2.1,16.5,6,22.2s8.4,9.8,14.1,13.4c5.3,3.2,11.3,5.9,17.6,7.7c5.9,1.8,11.6,3.6,16.5,5.3
			c4.9,1.8,8.8,3.9,12,6c2.5,1.8,3.6,4.2,3.6,7.4c0,1.8-0.4,3.6-1.4,4.6c-1.1,1.4-2.5,2.8-3.9,3.6c-1.8,1.1-3.9,1.8-6.3,2.5
			c-7.4,1.8-14.8,0.7-21.5-2.5c-4.6-2.1-8.4-5.3-11.3-9.1l-2.8-3.9l-29.2,32l2.8,2.8c7.4,7,15.8,12,24.6,15.1s18.3,4.6,28.1,4.6
			c8.1,0,15.8-1.1,22.9-3.2c7.4-2.1,14.1-5.3,19.7-9.8c5.6-4.6,10.2-9.8,13.8-16.5c3.6-6.6,4.9-14.5,4.9-23.6
			c0-9.5-1.8-17.2-5.6-22.9c-3.6-5.6-8.4-10.2-14.1-13.8c-5.3-3.2-11.3-5.6-17.6-7.4c-5.9-1.8-11.3-3.2-16.2-4.9
			c-4.6-1.4-8.8-3.6-11.6-5.6c-2.5-1.8-3.6-3.9-3.6-7c0-2.1,0.4-3.6,1.4-4.9C68.9,457.2,70,456.1,71.8,455.1z M64.8,456.5
			c-1.4,2.1-2.1,4.2-2.1,7c0,4.6,1.8,8.1,4.9,10.2c3.6,2.5,7.7,4.6,12.7,6c5.3,1.8,10.6,3.6,16.5,4.9c6,1.8,11.3,4.2,16.5,7
			c5.3,3.2,9.5,7.4,12.7,12.3c3.6,5.3,4.9,12,4.9,20.8c0,8.4-1.4,15.5-4.6,21.8s-7.4,11.3-12.7,15.5c-5.3,4.2-11.3,7-18.3,9.1
			c-7,2.1-14.4,2.8-21.8,2.8c-9.5,0-18.6-1.4-26.7-4.6c-8.1-2.8-15.8-7.7-23.2-14.5l23.2-25.7c3.6,4.6,7.7,8.1,12.7,10.6
			c5.3,2.5,10.6,3.6,15.8,3.6c2.8,0,5.3-0.4,8.1-1.1c2.8-0.7,5.3-1.4,7.4-2.8c2.1-1.4,3.9-2.8,5.3-4.9c1.4-2.1,2.1-4.2,2.1-7
			c0-4.6-1.8-8.1-5.3-10.6c-3.5-2.5-7.7-4.9-13-6.6c-5.3-1.8-10.9-3.6-16.8-5.6c-5.9-1.8-11.6-4.2-16.8-7.4s-9.5-7-13-12.3
			c-3.6-4.9-5.3-11.6-5.3-20c0-8.1,1.4-15.1,4.6-21.1c3.2-5.9,7.4-10.9,12.7-15.1c5.3-4.2,11.3-7,18.3-9.1c7-2.1,14.1-3.2,21.1-3.2
			c8.4,0,16.5,1.1,24.3,3.6c7.7,2.5,14.8,6.3,21.1,12l-22.5,24.6c-2.8-3.6-6.3-6-10.9-7.4c-4.6-1.8-8.8-2.5-13-2.5
			c-2.5,0-4.9,0.4-7.4,0.7c-2.5,0.7-4.9,1.4-7,2.5C67.8,453,65.8,454.4,64.8,456.5z"/>
		<path fill="none" d="M238.8,473.4h-60.1v-55.6h-40.4v156.6h40.8V510h60.1v64.4H280V417.8h-41.2V473.4z M242.7,421.7h32.7v148.8
			h-32.7V506h-67.8v64.4h-32.7V421.7h32.7v55.6h67.8V421.7z"/>
	</g>
	<g>
		<path fill="#7AC943" d="M440,467.8c-12.7-20.4-26-40.8-39-60.5l-29.5-45l-28.5,44c-13,20-26.7,40.8-39.7,61.6
			c-14.5,23.6-15.8,53.5-3.6,78c13.4,27,41.9,44.4,72.5,44.4c12.3,0,24.3-2.8,35.2-8.1c20-9.8,34.8-28.1,41.2-49.9
			C454.8,510.3,451.6,486.7,440,467.8z"/>
		<path fill="#5C9434" d="M437.3,504.6c-5.5,18.9-18.3,34.5-35.2,42.8c-9.4,4.6-19.5,6.9-30.1,6.9c-26.4,0-50.7-14.8-62.1-37.9
			c-2.9-5.7-4.9-11.8-6-18.1c-2.6,14.5-0.7,29.8,6,43.2c11.4,23,35.7,37.9,62,37.9c10.5,0,20.6-2.3,30.1-6.9
			c16.8-8.3,29.7-23.9,35.2-42.8c3-10.5,3.6-21.5,1.6-32C438.5,500,438,502.2,437.3,504.6z"/>
	</g>
	<g>
		<g>
			<path fill="#FFFFFF" d="M113.3,492c-5.3-3.2-10.6-5.6-16.5-7c-5.9-1.8-11.3-3.6-16.5-4.9c-5.3-1.8-9.5-3.9-12.7-6
				c-3.6-2.5-4.9-6-4.9-10.2c0-2.8,0.7-5.3,2.1-7c1.4-2.1,3.2-3.6,5.6-4.6c2.1-1.1,4.6-2.1,7-2.5c2.5-0.7,4.9-0.7,7.4-0.7
				c4.2,0,8.4,0.7,13,2.5c4.6,1.8,8.1,4.2,10.9,7.4l22.5-24.6c-6.3-5.6-13.4-9.5-21.1-12c-7.7-2.5-15.8-3.6-24.3-3.6
				c-7.4,0-14.4,1.1-21.1,3.2c-7,2.1-13,4.9-18.3,9.1c-5.3,4.2-9.5,9.1-12.7,15.1c-3.2,5.9-4.6,13-4.6,21.1c0,8.4,1.8,14.8,5.3,20
				c3.6,4.9,7.7,9.1,13,12.3s10.9,5.6,16.8,7.4s11.6,3.6,16.8,5.6c5.3,1.8,9.5,3.9,13,6.6c3.6,2.5,5.3,6,5.3,10.6
				c0,2.8-0.7,4.9-2.1,7c-1.4,2.1-3.2,3.6-5.3,4.9c-2.1,1.4-4.6,2.1-7.4,2.8c-2.8,0.7-5.3,1.1-8.1,1.1c-5.6,0-10.9-1.1-15.8-3.6
				c-5.3-2.5-9.5-6-12.7-10.6l-23.2,25.7c7,6.6,14.8,11.3,23.2,14.5c8.1,2.8,17.2,4.6,26.7,4.6c7.7,0,15.1-1.1,21.8-2.8
				c7-2.1,13-4.9,18.3-9.1c5.3-4.2,9.5-9.1,12.7-15.5c3.2-6.3,4.6-13.4,4.6-21.8c0-8.8-1.8-15.5-4.9-20.8
				C122.4,499.4,118.1,495.2,113.3,492z"/>
			<polygon fill="#FFFFFF" points="242.7,477.2 174.8,477.2 174.8,421.7 142.1,421.7 142.1,570.5 174.8,570.5 174.8,506.1 
				242.7,506.1 242.7,570.5 275.4,570.5 275.4,421.7 242.7,421.7 			"/>
			<polygon fill="#FFFFFF" points="446.3,421.7 446.3,450.6 488.9,450.6 488.9,570.5 521.6,570.5 521.6,450.6 564.2,450.6 
				564.2,421.7 			"/>
		</g>
		<path fill="#FFFFFF" d="M453.4,295.4c0-13.8-2.5-25-7-34.8c-4.6-9.5-10.9-17.2-19-23.2c-8.1-5.9-17.2-10.2-28.1-13
			c-10.6-2.8-22.2-3.9-33.8-3.9h-49.2v148.8h32.7l20-30.2c-0.7,0-2.1,0-2.8,0h-16.8v-88.3h19.3c6.6,0,13.4,0.7,19.7,2.5
			s11.6,4.2,16.2,7.7c4.6,3.6,8.4,8.1,10.9,13.4c2.8,5.3,4.2,11.6,4.2,19c0,8.4-1.4,15.5-4.2,21.5c-2.8,5.9-6.3,10.6-11.3,14.1
			c-4.9,3.6-10.6,5.9-16.8,7.7c-4.2,1.1-8.8,1.4-13.4,1.8l18.6,28.1c2.8-0.7,6-1.4,8.8-2.5c10.2-3.2,19-8.1,26.7-14.1
			c7.7-6.3,13.8-14.1,18.3-23.2C451.3,318,453.4,307.4,453.4,295.4z"/>
		<path fill="#FFFFFF" d="M283.1,238.4c-7-6.6-15.5-12-25.3-15.8c-9.8-3.6-20.4-5.6-32-5.6s-22.5,1.8-32,5.6
			c-9.8,3.6-18.3,8.8-25.3,15.8c-7,6.6-12.7,15.1-16.5,24.7s-5.9,20.4-5.9,32.4s2.1,22.9,5.9,32.4c3.9,9.5,9.5,17.9,16.5,24.6
			c7,6.6,15.5,12,25.3,15.8c9.8,3.6,20.4,5.6,32,5.6s22.5-1.8,32-5.6c9.8-3.6,18.3-8.8,25.3-15.8c7-6.6,12.7-15.1,16.5-24.6
			c3.9-9.5,6-20.4,6-32.4s-2.1-22.9-6-32.4C295.8,253.6,290.5,245.1,283.1,238.4z M271.8,295.4c0,7-1.1,13.4-3.2,19.3
			c-2.1,6-5.3,10.9-9.5,15.1c-4.3,4.2-8.8,7.7-14.8,9.8c-5.6,2.5-12,3.6-19,3.6c-7,0-13.4-1.1-19-3.6c-5.6-2.5-10.6-5.6-14.8-9.8
			c-4.2-4.2-7-9.1-9.5-15.1c-2.1-5.9-3.2-12.3-3.2-19.3c0-7,1.1-13.4,3.2-19c2.1-5.9,5.3-10.9,9.5-15.1s8.8-7.7,14.8-9.8
			c5.6-2.5,12-3.6,19-3.6c7,0,13.4,1.1,19,3.6c5.6,2.5,10.6,5.6,14.8,9.8c4.2,4.2,7,9.5,9.5,15.1C270.8,282,271.8,288.7,271.8,295.4
			z"/>
		<path fill="#FFFFFF" d="M129,303.5c-2.8-3.2-6.3-5.6-10.2-7.7c-3.9-2.1-8.4-3.6-13.4-4.2v-0.4c7.7-2.5,14.1-6.3,18.6-12
			c4.6-5.6,7-12.7,7-20.8c0-8.1-1.8-14.8-4.9-19.7c-3.2-4.9-7.4-8.8-12.7-11.6c-5.3-2.8-10.9-4.6-17.6-5.6c-6.6-1.1-13-1.4-19.3-1.4
			H21.1V369h60.8c6.6,0,13.4-0.7,19.7-2.1c6.6-1.4,12.7-3.9,17.9-7s9.5-7.4,13-12.7c3.6-5.3,4.9-12,4.9-19.7c0-4.9-0.7-9.1-2.5-13.4
			C134,310.1,131.9,306.7,129,303.5z M83.4,341.4H53.8v-33.8h24.7c2.8,0,5.6,0.4,8.4,0.7c3.2,0.4,5.9,1.1,8.4,2.5
			c2.8,1.1,4.9,2.8,6.6,4.9c1.8,2.1,2.5,4.9,2.5,8.4c0,3.2-0.7,5.9-2.1,8.1c-1.4,2.1-3.2,4.2-5.3,5.6c-2.1,1.4-4.6,2.5-7,2.8
			C88.2,341.1,85.8,341.4,83.4,341.4z M96.4,271.5c-1.1,2.1-2.8,3.9-4.6,4.9c-2.1,1.4-4.2,2.1-6.6,2.8c-2.5,0.7-4.9,0.7-7.4,0.7
			H54.2v-31.7h22.2c2.5,0,5.3,0.4,7.7,0.7c2.8,0.4,4.9,1.4,7,2.5c2.1,1.1,3.9,2.8,5.3,4.6c1.4,2.1,2.1,4.6,2.1,7.7
			C98.1,266.6,97.4,269.4,96.4,271.5z"/>
		<polygon fill="#FFFFFF" points="495.9,369.3 529,369.3 529,306 584.6,220.5 545.9,220.5 512.5,276.1 480.8,220.5 440,220.5 
			495.9,306 		"/>
		<path fill="#FFFFFF" d="M372.8,399.9c2.1,3.2,3.9,6,5.9,8.8c14.1,21.5,28.8,44,42.6,66.1c3.2,4.9,5.3,10.6,6.6,16.5
			c0.4,1.4,0.7,3.2,1.1,4.9c0,0.4,0,1.1,0,1.4c0,11.6-9.5,21.5-21.5,21.5c-11.6,0-21.5-9.5-21.5-21.1l0,0l0,0
			C386.5,495.2,379.2,437.9,372.8,399.9z"/>
	</g>
</g>
<g>
	<path fill="#FFFFFF" d="M43.6,660.1h-4.4l-23-54.1h9.1l15.9,38.1c0.3,0.7,0.6,1.4,0.6,2.4c0.1-1,0.2-1.5,0.7-2.4L57.2,606h9.1
		L43.6,660.1z"/>
	<path fill="#FFFFFF" d="M109.3,658.7l-6.1-14.7H80.6l-6,14.7h-8.4l21.5-54.1H96l21.5,54.1H109.3z M91.9,613.6l-9.1,23.6h18
		L91.9,613.6z"/>
	<path fill="#FFFFFF" d="M147.3,638.9c-4.2,0-9.2-0.6-11-1.1v21h-8.4V606h18.3c12.6,0,19.3,5.6,19.3,16.2
		C165.5,632,158,638.9,147.3,638.9z M145.3,612.9h-9.1v17.9c1.3,0.3,5.3,1.1,10.2,1.1c6.4,0,10.7-4,10.7-10
		C157.1,615.6,153.7,612.9,145.3,612.9z"/>
	<path fill="#FFFFFF" d="M199.8,659.7c-17,0-29.3-11.5-29.3-27.4c0-15.8,12.3-27.4,29.3-27.4c16.9,0,29.3,11.6,29.3,27.4
		C229.1,648.3,216.7,659.7,199.8,659.7z M199.8,612c-11.6,0-20.4,8.7-20.4,20.3c0,11.6,8.8,20.4,20.4,20.4
		c11.6,0,20.3-8.8,20.3-20.4C220.1,620.8,211.4,612,199.8,612z"/>
	<path fill="#FFFFFF" d="M272.8,658.7l-13.9-21.5h-7.6v21.5h-8.4V606h17.8c12.7,0,19.7,5.3,19.7,15c0,8.2-5,14.4-12.4,15.6
		l14.6,22.2H272.8z M268,614.3c-1.8-1.3-2.4-1.4-8.5-1.4h-8.3v17.3h8.3c5.4,0,6.5-0.2,8.8-2.2c2-1.8,2.9-3.9,2.9-6.7
		C271.2,618.2,270.1,615.9,268,614.3z"/>
	<path fill="#FFFFFF" d="M316,658.7V606h8.4v45.8h25v7H316z"/>
	<path fill="#FFFFFF" d="M358.7,658.7V606h8.4v52.8H358.7z"/>
	<path fill="#FFFFFF" d="M417.1,659.3c3.1,3.8,4.5,5.1,8,7.3c3.2,2.2,5.1,3.2,10.3,5.2l-4.5,5.9c-6.2-2.4-8.7-3.6-12.3-6.1
		c-4.3-3-7.4-6.1-12-11.8c-9.1-1.7-12.6-3.2-17.4-8c-5.2-5.1-8.1-11.9-8.1-19.4c0-15.8,12.3-27.4,29.3-27.4
		c16.9,0,29.3,11.6,29.3,27.4C439.5,645.7,431.2,655.7,417.1,659.3z M410.2,612c-11.6,0-20.4,8.7-20.4,20.3
		c0,11.6,8.8,20.4,20.4,20.4s20.3-8.8,20.3-20.4C430.5,620.8,421.8,612,410.2,612z"/>
	<path fill="#FFFFFF" d="M489.3,656.3c-4,2.3-9.9,4-15,4s-11-1.7-15.1-4c-5.5-3.3-7.6-8.6-7.6-19.1V606h8.3v32.7
		c0,9.6,5,14.6,14.5,14.6c9.5,0,14.5-5,14.5-14.6V606h8.3v31.3C497,647.7,494.9,653,489.3,656.3z"/>
	<path fill="#FFFFFF" d="M515.5,658.7V606h8.4v52.8H515.5z"/>
	<path fill="#FFFFFF" d="M585.4,651.5c-4.7,5-11.5,7.3-21.8,7.3h-19.4V606h19.4c10.2,0,17,2.3,21.9,7.3c4.3,4.4,7.5,12.5,7.5,19.1
		C593,639.1,590.1,646.5,585.4,651.5z M577.1,616.6c-3.3-2.8-6.7-3.6-14.1-3.6h-10.4v38.9h9.7c7.6,0,11.3-1,14.9-3.9
		c4.2-3.4,7-9.7,7-15.7C584.2,626.2,581.6,620.2,577.1,616.6z"/>
</g>
</svg>
