<?xml version="1.0" encoding="utf-8"?>
<!-- Generator: Adobe Illustrator 18.1.1, SVG Export Plug-In . SVG Version: 6.00 Build 0)  -->
<svg version="1.1" id="Layer_1" xmlns="http://www.w3.org/2000/svg" xmlns:xlink="http://www.w3.org/1999/xlink" x="0px" y="0px"
	 viewBox="0 0 792 612" enable-background="new 0 0 792 612" xml:space="preserve">
<g>
	<path fill="none" d="M591.7,175.8c0-18.2-3.2-34.1-9.6-47.3s-15-23.7-25.9-31.9S532.6,82.5,518,78.9c-14.1-3.6-29.6-5.5-45.1-5.5
		h-68.7V276h44.2l32.8-49.6l10.5,15.5l-6.8-10.5c5.9-0.5,11.4-1.4,16.8-2.3c8.6-1.8,15.9-5.5,21.8-10c6.4-4.6,10.9-10.5,14.6-18.2
		c3.6-7.7,5.5-16.8,5.5-27.8c0-9.6-1.8-17.8-5.5-24.6c-3.6-6.8-8.2-12.7-14.1-17.3c-5.9-4.6-13.2-7.7-20.9-10
		c-8.2-2.3-16.4-3.2-25.5-3.2h-25v114.2h21.8c1.4,0,2.3,0,3.2,0L452,271.4h-42.3V78.9h63.7c15.5,0,30,1.8,43.7,5
		c13.7,3.6,25.9,9.1,36.4,16.8c10.5,7.7,18.7,17.8,24.6,30s9.1,27.3,9.1,45.1c0,15.5-2.7,29.1-8.6,41c-5.9,11.8-13.7,21.8-23.7,30
		c-10,8.2-21.4,14.1-34.6,18.2c-3.6,1.4-7.3,2.3-11.4,3.2l3.2,4.6c3.2-0.9,6.8-1.8,10-2.7c13.7-4.6,25.9-10.9,36-19.1
		c10.5-8.6,19.1-19.1,25-31.4C589,206.8,591.7,192.2,591.7,175.8z M475.2,227.3c-0.5,0-0.9,0-1.4,0H457V123h20
		c8.2,0,16.4,0.9,24.1,3.2c7.3,2.3,14.1,5,19.6,9.6c5.5,4.1,9.6,9.1,12.7,15.5c3.2,6.4,4.6,13.7,4.6,22.3c0,10-1.8,18.7-5,25.5
		c-3.2,6.8-7.7,12.3-13.2,16.4c-5.5,4.1-12.3,7.3-20,9.1c-4.6,0.9-9.6,1.8-15.9,2.3L475.2,227.3z"/>
	<path fill="none" d="M370.1,98.4c-9.6-9.1-21.4-16.4-34.6-21.4c-26.4-10-60.5-10-86.9,0c-13.2,5-25,12.3-34.6,21.4
		s-17.3,20.5-22.8,33.7s-8.2,27.8-8.2,43.7s2.7,31,8.2,43.7c5.5,13.2,13.2,24.6,22.8,33.7c9.6,9.1,21.4,16.4,34.6,21.4
		c13.2,5,27.8,7.3,43.2,7.3s30-2.3,43.2-7.3c13.2-5,25-12.3,34.6-21.4c9.6-9.1,17.3-20.5,22.8-33.7c5.5-13.2,8.2-27.8,8.2-43.7
		s-2.7-31-8.2-43.7C387.4,118.9,379.6,107.5,370.1,98.4z M388.3,217.7c-5,12.3-12.3,23.2-21.4,31.9c-9.1,8.6-20,15.5-32.8,20.5
		c-12.7,4.6-26.4,7.3-41.4,7.3c-15,0-29.1-2.3-41.4-7.3c-12.7-4.6-23.7-11.4-32.8-20.5c-9.1-8.6-16.4-19.6-21.4-31.9
		c-5-12.3-7.7-26.4-7.7-41.9s2.7-29.6,7.7-41.9s12.3-23.2,21.4-31.9c9.1-8.6,20-15.5,32.8-20.5c12.7-4.6,26.4-7.3,41.4-7.3
		s29.1,2.3,41.4,7.3c12.7,4.6,23.7,11.4,32.8,20.5c9.1,8.6,16.4,19.6,21.4,31.9c5,12.3,7.7,26.4,7.7,41.9S393.3,205.4,388.3,217.7z"
		/>
	<path fill="none" d="M335.5,131.2c-5.5-5.5-11.4-10-19.1-12.7c-7.3-3.2-15.5-4.6-24.6-4.6s-17.3,1.4-24.6,4.6
		c-7.3,3.2-13.7,7.3-19.1,12.7c-5.5,5.5-9.1,12.3-12.3,19.6c-2.7,7.7-4.1,15.9-4.1,24.6c0,9.1,1.4,17.3,4.1,25
		c2.7,7.7,6.8,14.1,12.3,19.6s11.4,10,19.1,12.7c7.3,3.2,15.5,4.6,24.6,4.6s17.3-1.4,24.6-4.6c7.3-3.2,13.7-7.3,19.1-12.7
		c5.5-5.5,9.1-11.8,12.3-19.6c2.7-7.7,4.1-15.9,4.1-25c0-9.1-1.4-17.3-4.1-24.6C345,143.5,340.9,137.1,335.5,131.2z M342.7,199
		c-2.7,6.8-6.4,12.7-10.9,17.8c-4.6,5-10.5,9.1-17.3,11.8c-13.2,5.5-31.9,5.5-45.1,0c-6.8-2.7-12.3-6.8-17.3-11.8
		c-4.6-5-8.6-10.9-10.9-17.8c-2.7-6.8-4.1-14.6-4.1-23.2c0-8.2,1.4-15.9,4.1-22.8s6.4-12.7,10.9-17.8s10.5-9.1,17.3-11.8
		c6.8-2.7,14.1-4.1,22.8-4.1c8.2,0,15.9,1.4,22.8,4.1c6.8,2.7,12.3,6.8,17.3,11.8c4.6,5,8.6,10.9,10.9,17.8
		c2.7,6.8,4.1,14.6,4.1,22.8C346.8,184.5,345.5,192.2,342.7,199z"/>
	<path fill="none" d="M132.9,273.7c9.1-1.8,17.3-5,25-9.6s13.7-10.5,18.7-18.2c5-7.7,7.3-17.3,7.3-28.2c0-6.8-0.9-13.2-3.2-19.1
		c-2.3-5.9-5.5-11.4-9.6-15.9c-4.1-4.6-9.1-8.2-14.6-11.4c-1.4-0.9-3.2-1.4-5-2.3c5-3.2,9.6-6.8,13.2-11.4
		c6.8-8.2,10.5-18.2,10.5-30.5c0-11.4-2.3-20.9-7.3-28.2c-4.6-6.8-10.9-12.7-18.2-16.4c-7.3-3.6-15.5-6.4-24.6-7.7
		c-8.6-1.4-17.3-1.8-25.9-1.8H22.3v202.6h83.8C115.2,276.4,123.8,275.5,132.9,273.7z M27.3,271.4V78.9h71.9c8.2,0,16.8,0.5,25,1.8
		c8.6,1.4,15.9,3.6,22.8,7.3c6.8,3.6,12.3,8.6,16.4,15c4.1,6.4,6.4,14.6,6.4,25.5s-3.2,20-9.1,26.9c-5.9,7.3-14.1,12.3-24.1,15.5
		v0.5c6.4,0.9,12.3,2.7,17.3,5.5c5,2.7,9.6,5.9,13.2,10c3.6,4.1,6.4,8.6,8.6,14.1c1.8,5.5,3.2,11.4,3.2,17.3c0,10-2.3,18.7-6.4,25.5
		c-4.6,6.8-10,12.3-16.8,16.4c-6.8,4.1-14.6,7.3-23.2,9.1s-17.3,2.7-25.5,2.7H27.3V271.4z"/>
	<path fill="none" d="M110.2,154.9c3.2-0.9,5.9-1.8,8.6-3.6c2.7-1.8,4.6-3.6,5.9-6.4c1.4-2.7,2.3-5.9,2.3-10s-0.9-7.3-2.7-10
		c-1.8-2.7-4.1-4.6-6.8-5.9c-2.7-1.4-5.9-2.3-9.1-3.2c-3.6-0.5-6.8-0.9-10-0.9H69.6v41h30.5C103.8,155.8,107,155.3,110.2,154.9z
		 M74.6,119.8h23.7c2.7,0,5.9,0.5,9.1,0.9c2.7,0.5,5.5,1.4,7.7,2.7c1.8,0.9,3.6,2.3,5,4.6c1.4,1.8,1.8,4.1,1.8,7.3
		c0,2.7-0.5,5.5-1.8,7.3c-1.4,1.8-2.7,3.6-4.6,4.6c-1.8,1.4-4.6,2.3-6.8,2.7c-2.7,0.5-5.5,0.9-8.6,0.9H74.6V119.8z"/>
	<path fill="none" d="M136.1,213.1c0-4.6-0.9-8.2-3.2-10.9s-5-5-8.6-6.4c-3.6-1.4-7.3-2.3-10.9-3.2c-4.1-0.5-7.7-0.9-10.9-0.9H70.6
		v43.7h38.2c3.2,0,6.4-0.5,10-0.9c3.2-0.9,6.4-1.8,9.1-3.6c2.7-1.8,5-4.1,6.8-7.3C135.2,220.4,136.1,217.2,136.1,213.1z
		 M129.3,220.9c-1.4,2.3-3.2,4.1-5,5.5c-2.3,1.4-4.6,2.3-7.3,3.2c-3.2,0.5-5.9,0.9-8.6,0.9H75.6v-33.7h26.9c3.2,0,6.8,0.5,10.5,0.9
		c3.6,0.5,6.8,1.4,10,2.7c2.7,0.9,5,2.7,6.4,5c1.4,1.8,2.3,4.6,2.3,7.7C131.1,216.3,130.2,218.6,129.3,220.9z"/>
	<path fill="none" d="M636.8,276.4h52.8v-85.6l76.5-117h-62.8l-40.1,66.9l-37.8-66.9h-65.1l76.5,117V276.4z M569.4,78.9h52.8
		l41,71.9l43.2-71.9H757l-72.4,110.6v81.9h-42.8v-81.9L569.4,78.9z"/>
	<path fill="none" d="M130.2,394.3c-1.8-2.3-4.6-4.1-8.2-5.5c-7.3-2.3-12.7-3.2-19.1-1.8c-2.3,0.5-4.1,1.4-5.9,2.3
		c-1.4,0.5-1.8,1.4-2.7,2.3c-0.5,0.5-0.5,1.4-0.5,1.8c0,2.3,0.5,2.3,1.4,2.7c3.2,2.3,7.7,4.6,13.2,6.4c6.4,2.3,13.2,4.1,20.9,6.4
		c8.6,2.3,16.8,5.9,24.6,10.5c6.8,4.1,13.2,10,17.8,16.4v-64.6l-32.3,34.6L130.2,394.3z"/>
	<g>
		<path fill="none" d="M572.6,334.2V382h55.1v154.8h52.8V382h55.1v-47.8H572.6z M730.1,376.6H675v154.8h-42.3V376.6h-55.1v-37.3
			h152.5V376.6z"/>
		<path fill="none" d="M92.9,382.5c2.3-1.4,5-2.3,7.7-2.7c7.7-1.8,15-0.9,23.7,1.8c5,1.8,8.6,4.6,11.8,8.2l3.6,4.6l36.4-40.1
			l-3.6-3.6c-8.6-7.7-18.7-13.2-29.1-16.4c-20-5.9-41.9-6.4-61.9-0.9c-9.6,2.7-17.8,7.3-25,12.7c-7.3,5.9-13.2,12.7-17.8,21.4
			c-4.6,8.6-6.8,18.7-6.8,29.6c0,11.8,2.7,21.4,7.7,28.7c5,7.3,10.9,12.7,18.2,17.3c6.8,4.1,14.6,7.7,22.8,10
			c7.7,2.3,15,4.6,21.4,6.8c6.4,2.3,11.4,5,15.5,7.7c3.2,2.3,4.6,5.5,4.6,9.6c0,2.3-0.5,4.6-1.8,5.9c-1.4,1.8-3.2,3.6-5,4.6
			c-2.3,1.4-5,2.3-8.2,3.2c-9.6,2.3-19.1,0.9-27.8-3.2c-5.9-2.7-10.9-6.8-14.6-11.8l-3.6-5l-37.8,41.4l3.6,3.6
			c9.6,9.1,20.5,15.5,31.9,19.6s23.7,5.9,36.4,5.9c10.5,0,20.5-1.4,29.6-4.1c9.6-2.7,18.2-6.8,25.5-12.7
			c7.3-5.9,13.2-12.7,17.8-21.4c4.6-8.6,6.4-18.7,6.4-30.5c0-12.3-2.3-22.3-7.3-29.6c-4.6-7.3-10.9-13.2-18.2-17.8
			c-6.8-4.1-14.6-7.3-22.8-9.6c-7.7-2.3-14.6-4.1-20.9-6.4c-5.9-1.8-11.4-4.6-15-7.3c-3.2-2.3-4.6-5-4.6-9.1c0-2.7,0.5-4.6,1.8-6.4
			C89.2,385.2,90.6,383.8,92.9,382.5z M83.8,384.3c-1.8,2.7-2.7,5.5-2.7,9.1c0,5.9,2.3,10.5,6.4,13.2c4.6,3.2,10,5.9,16.4,7.7
			c6.8,2.3,13.7,4.6,21.4,6.4c7.7,2.3,14.6,5.5,21.4,9.1c6.8,4.1,12.3,9.6,16.4,15.9c4.6,6.8,6.4,15.5,6.4,26.9
			c0,10.9-1.8,20-5.9,28.2c-4.1,8.2-9.6,14.6-16.4,20c-6.8,5.5-14.6,9.1-23.7,11.8s-18.7,3.6-28.2,3.6c-12.3,0-24.1-1.8-34.6-5.9
			c-10.5-3.6-20.5-10-30-18.7l30-33.2c4.6,5.9,10,10.5,16.4,13.7c6.8,3.2,13.7,4.6,20.5,4.6c3.6,0,6.8-0.5,10.5-1.4
			c3.6-0.9,6.8-1.8,9.6-3.6c2.7-1.8,5-3.6,6.8-6.4c1.8-2.7,2.7-5.5,2.7-9.1c0-5.9-2.3-10.5-6.8-13.7s-10-6.4-16.8-8.6
			c-6.8-2.3-14.1-4.6-21.8-7.3c-7.7-2.3-15-5.5-21.8-9.6c-6.8-4.1-12.3-9.1-16.8-15.9c-4.6-6.4-6.8-15-6.8-25.9
			c0-10.5,1.8-19.6,5.9-27.3s9.6-14.1,16.4-19.6c6.8-5.5,14.6-9.1,23.7-11.8s18.2-4.1,27.3-4.1c10.9,0,21.4,1.4,31.4,4.6
			s19.1,8.2,27.3,15.5l-29.1,31.9c-3.6-4.6-8.2-7.7-14.1-9.6c-5.9-2.3-11.4-3.2-16.8-3.2c-3.2,0-6.4,0.5-9.6,0.9
			c-3.2,0.9-6.4,1.8-9.1,3.2C87.8,379.7,85.1,381.6,83.8,384.3z"/>
		<path fill="none" d="M309.1,406.1h-77.8v-71.9h-52.3v202.6h52.8v-83.3h77.8v83.3h52.8V334.2h-53.3V406.1z M314.1,339.2h42.3v192.5
			h-42.3v-83.3h-87.8v83.3h-42.3V339.2h42.3v71.9h87.8V339.2z"/>
	</g>
	<g>
		<path fill="#7AC943" d="M569.4,398.9c-16.4-26.4-33.7-52.8-50.5-78.3l-38.2-58.3l-36.9,56.9c-16.8,25.9-34.6,52.8-51.4,79.7
			c-18.7,30.5-20.5,69.2-4.6,101c17.3,35,54.2,57.4,93.8,57.4c15.9,0,31.4-3.6,45.5-10.5c25.9-12.7,45.1-36.4,53.3-64.6
			C588.5,453.9,584.4,423.4,569.4,398.9z"/>
		<path fill="#5C9434" d="M565.9,446.5c-7.1,24.5-23.7,44.7-45.5,55.4c-12.2,5.9-25.3,8.9-38.9,8.9c-34.1,0-65.6-19.2-80.3-49
			c-3.7-7.4-6.3-15.3-7.8-23.4c-3.4,18.8-0.9,38.5,7.8,55.9c14.7,29.8,46.2,49,80.3,49c13.6,0,26.7-3,38.9-8.9
			c21.8-10.7,38.4-30.9,45.5-55.4c3.9-13.6,4.6-27.8,2.1-41.4C567.5,440.6,566.8,443.5,565.9,446.5z"/>
	</g>
	<g>
		<g>
			<path fill="#FFFFFF" d="M146.6,430.3c-6.8-4.1-13.7-7.3-21.4-9.1c-7.7-2.3-14.6-4.6-21.4-6.4c-6.8-2.3-12.3-5-16.4-7.7
				c-4.6-3.2-6.4-7.7-6.4-13.2c0-3.6,0.9-6.8,2.7-9.1c1.8-2.7,4.1-4.6,7.3-5.9c2.7-1.4,5.9-2.7,9.1-3.2c3.2-0.9,6.4-0.9,9.6-0.9
				c5.5,0,10.9,0.9,16.8,3.2c5.9,2.3,10.5,5.5,14.1,9.6l29.1-31.9c-8.2-7.3-17.3-12.3-27.3-15.5c-10-3.2-20.5-4.6-31.4-4.6
				c-9.6,0-18.7,1.4-27.3,4.1c-9.1,2.7-16.8,6.4-23.7,11.8c-6.8,5.5-12.3,11.8-16.4,19.6c-4.1,7.7-5.9,16.8-5.9,27.3
				c0,10.9,2.3,19.1,6.8,25.9c4.6,6.4,10,11.8,16.8,15.9s14.1,7.3,21.8,9.6c7.7,2.3,15,4.6,21.8,7.3c6.8,2.3,12.3,5,16.8,8.6
				c4.6,3.2,6.8,7.7,6.8,13.7c0,3.6-0.9,6.4-2.7,9.1s-4.1,4.6-6.8,6.4c-2.7,1.8-5.9,2.7-9.6,3.6c-3.6,0.9-6.8,1.4-10.5,1.4
				c-7.3,0-14.1-1.4-20.5-4.6c-6.8-3.2-12.3-7.7-16.4-13.7l-30,33.2c9.1,8.6,19.1,14.6,30,18.7c10.5,3.6,22.3,5.9,34.6,5.9
				c10,0,19.6-1.4,28.2-3.6c9.1-2.7,16.8-6.4,23.7-11.8c6.8-5.5,12.3-11.8,16.4-20c4.1-8.2,5.9-17.3,5.9-28.2
				c0-11.4-2.3-20-6.4-26.9C158.4,439.8,152.9,434.4,146.6,430.3z"/>
			<polygon fill="#FFFFFF" points="314.1,411.1 226.2,411.1 226.2,339.2 183.9,339.2 183.9,531.8 226.2,531.8 226.2,448.5 
				314.1,448.5 314.1,531.8 356.4,531.8 356.4,339.2 314.1,339.2 			"/>
			<polygon fill="#FFFFFF" points="577.6,339.2 577.6,376.6 632.7,376.6 632.7,531.8 675,531.8 675,376.6 730.1,376.6 730.1,339.2 
							"/>
		</g>
		<path fill="#FFFFFF" d="M586.7,175.8c0-17.8-3.2-32.3-9.1-45.1c-5.9-12.3-14.1-22.3-24.6-30c-10.5-7.7-22.3-13.2-36.4-16.8
			c-13.7-3.6-28.7-5-43.7-5h-63.7v192.5h42.3l25.9-39.1c-0.9,0-2.7,0-3.6,0H452V118h25c8.6,0,17.3,0.9,25.5,3.2
			c8.2,2.3,15,5.5,20.9,10c5.9,4.6,10.9,10.5,14.1,17.3c3.6,6.8,5.5,15,5.5,24.6c0,10.9-1.8,20-5.5,27.8
			c-3.6,7.7-8.2,13.7-14.6,18.2c-6.4,4.6-13.7,7.7-21.8,10c-5.5,1.4-11.4,1.8-17.3,2.3l24.1,36.4c3.6-0.9,7.7-1.8,11.4-3.2
			c13.2-4.1,24.6-10.5,34.6-18.2c10-8.2,17.8-18.2,23.7-30C584,205,586.7,191.3,586.7,175.8z"/>
		<path fill="#FFFFFF" d="M366.4,102.1c-9.1-8.6-20-15.5-32.8-20.5c-12.7-4.6-26.4-7.3-41.4-7.3c-15,0-29.1,2.3-41.4,7.3
			c-12.7,4.6-23.7,11.4-32.8,20.5c-9.1,8.6-16.4,19.6-21.4,31.9c-5,12.3-7.7,26.4-7.7,41.9s2.7,29.6,7.7,41.9s12.3,23.2,21.4,31.9
			c9.1,8.6,20,15.5,32.8,20.5c12.7,4.6,26.4,7.3,41.4,7.3s29.1-2.3,41.4-7.3c12.7-4.6,23.7-11.4,32.8-20.5
			c9.1-8.6,16.4-19.6,21.4-31.9c5-12.3,7.7-26.4,7.7-41.9s-2.7-29.6-7.7-41.9C382.8,121.7,376,110.7,366.4,102.1z M351.8,175.8
			c0,9.1-1.4,17.3-4.1,25c-2.7,7.7-6.8,14.1-12.3,19.6c-5.5,5.5-11.4,10-19.1,12.7c-7.3,3.2-15.5,4.6-24.6,4.6s-17.3-1.4-24.6-4.6
			c-7.3-3.2-13.7-7.3-19.1-12.7c-5.5-5.5-9.1-11.8-12.3-19.6c-2.7-7.7-4.1-15.9-4.1-25c0-9.1,1.4-17.3,4.1-24.6
			c2.7-7.7,6.8-14.1,12.3-19.6c5.5-5.5,11.4-10,19.1-12.7c7.3-3.2,15.5-4.6,24.6-4.6s17.3,1.4,24.6,4.6s13.7,7.3,19.1,12.7
			c5.5,5.5,9.1,12.3,12.3,19.6C350.5,158.5,351.8,167.2,351.8,175.8z"/>
		<path fill="#FFFFFF" d="M167,186.3c-3.6-4.1-8.2-7.3-13.2-10c-5-2.7-10.9-4.6-17.3-5.5v-0.5c10-3.2,18.2-8.2,24.1-15.5
			s9.1-16.4,9.1-26.9s-2.3-19.1-6.4-25.5c-4.1-6.4-9.6-11.4-16.4-15c-6.8-3.6-14.1-5.9-22.8-7.3c-8.6-1.4-16.8-1.8-25-1.8H27.3V271
			h78.7c8.6,0,17.3-0.9,25.5-2.7c8.6-1.8,16.4-5,23.2-9.1c6.8-4.1,12.3-9.6,16.8-16.4c4.6-6.8,6.4-15.5,6.4-25.5
			c0-6.4-0.9-11.8-3.2-17.3C173.4,194.9,170.7,190.4,167,186.3z M107.9,235.4H69.6v-43.7h31.9c3.6,0,7.3,0.5,10.9,0.9
			c4.1,0.5,7.7,1.4,10.9,3.2c3.6,1.4,6.4,3.6,8.6,6.4c2.3,2.7,3.2,6.4,3.2,10.9c0,4.1-0.9,7.7-2.7,10.5c-1.8,2.7-4.1,5.5-6.8,7.3
			c-2.7,1.8-5.9,3.2-9.1,3.6C114.2,235,111.1,235.4,107.9,235.4z M124.7,144.9c-1.4,2.7-3.6,5-5.9,6.4c-2.7,1.8-5.5,2.7-8.6,3.6
			c-3.2,0.9-6.4,0.9-9.6,0.9H70.1v-41h28.7c3.2,0,6.8,0.5,10,0.9c3.6,0.5,6.4,1.8,9.1,3.2c2.7,1.4,5,3.6,6.8,5.9
			c1.8,2.7,2.7,5.9,2.7,10C127,138.5,126.1,142.1,124.7,144.9z"/>
		<polygon fill="#FFFFFF" points="641.8,271.4 684.6,271.4 684.6,189.5 756.5,78.9 706.4,78.9 663.2,150.8 622.2,78.9 569.4,78.9 
			641.8,189.5 		"/>
		<path fill="#FFFFFF" d="M482.5,311c2.7,4.1,5,7.7,7.7,11.4c18.2,27.8,37.3,56.9,55.1,85.6c4.1,6.4,6.8,13.7,8.6,21.4
			c0.5,1.8,0.9,4.1,1.4,6.4c0,0.5,0,1.4,0,1.8c0,15-12.3,27.8-27.8,27.8c-15,0-27.8-12.3-27.8-27.3l0,0l0,0
			C500.2,434.4,490.7,360.2,482.5,311z"/>
	</g>
</g>
</svg>
